<?xml version='1.0' encoding='utf-8'?>
<!DOCTYPE svg PUBLIC '-//W3C//DTD SVG 1.1//EN' 'http://www.w3.org/Graphics/SVG/1.1/DTD/svg11.dtd'>
<svg version='1.1' id='Layer_1' xmlns='http://www.w3.org/2000/svg' xmlns:xlink='http://www.w3.org/1999/xlink' x='0px' y='px' width='29px' height='38px' viewBox='0 0 29 38' enable-background='new 0 0 29 38' xml:space='preserve'>
<path d="M5.000 2.000h4.000v1.000h3.000v1.000h-6.000v1.000h-1.000v1.000h-1.000v-2.000h1.000z" fill="rgb(240,110,170)" stroke="none" />
<path d="M6.000 4.000h2.000v1.000h-1.000v1.000h-1.000z" fill="rgb(236,0,140)" stroke="none" />
<path d="M8.000 4.000h1.000v1.000h-1.000z" fill="rgb(192,17,121)" stroke="none" />
<path d="M9.000 4.000h2.000v1.000h-1.000v1.000h-2.000v-1.000h1.000z" fill="rgb(236,0,140)" stroke="none" />
<path d="M11.000 4.000h1.000v1.000h-1.000z" fill="rgb(192,17,121)" stroke="none" />
<path d="M5.000 5.000h1.000v1.000h-1.000z" fill="rgb(192,17,121)" stroke="none" />
<path d="M7.000 5.000h1.000v1.000h-1.000z" fill="rgb(192,17,121)" stroke="none" />
<path d="M10.000 5.000h1.000v1.000h-1.000z" fill="rgb(192,17,121)" stroke="none" />
<path d="M3.000 6.000h1.000v1.000h-1.000z" fill="rgb(240,110,170)" stroke="none" />
<path d="M4.000 6.000h2.000v1.000h-2.000z" fill="rgb(236,0,140)" stroke="none" />
<path d="M6.000 6.000h1.000v1.000h-1.000z" fill="rgb(192,17,121)" stroke="none" />
<path d="M7.000 6.000h1.000v2.000h1.000v4.000h-1.000v-3.000h-1.000z" fill="rgb(140,98,57)" stroke="none" />
<path d="M8.000 6.000h1.000v1.000h-1.000z" fill="rgb(192,17,121)" stroke="none" />
<path d="M19.000 6.000h1.000v2.000h-2.000v-1.000h1.000z" fill="rgb(181,174,63)" stroke="none" />
<path d="M20.000 6.000h2.000v1.000h-2.000z" fill="rgb(193,186,77)" stroke="none" />
<path d="M22.000 6.000h1.000v1.000h-1.000z" fill="rgb(181,174,63)" stroke="none" />
<path d="M20.000 7.000h2.000v3.000h-1.000v-1.000h-2.000v-1.000h1.000z" fill="rgb(255,255,0)" stroke="none" />
<path d="M22.000 7.000h1.000v1.000h-1.000z" fill="rgb(193,186,77)" stroke="none" />
<path d="M18.000 8.000h1.000v2.000h-1.000z" fill="rgb(167,160,46)" stroke="none" />
<path d="M22.000 8.000h1.000v1.000h-1.000z" fill="rgb(181,174,63)" stroke="none" />
<path d="M6.000 9.000h2.000v1.000h-2.000z" fill="rgb(165,163,163)" stroke="none" />
<path d="M9.000 9.000h9.000v1.000h-9.000z" fill="rgb(165,163,163)" stroke="none" />
<path d="M19.000 9.000h1.000v1.000h-1.000z" fill="rgb(165,163,163)" stroke="none" />
<path d="M20.000 9.000h1.000v1.000h-1.000z" fill="rgb(255,255,255)" stroke="none" />
<path d="M22.000 9.000h1.000v2.000h-1.000z" fill="rgb(167,160,46)" stroke="none" />
<path d="M3.000 10.000h3.000v1.000h-3.000z" fill="rgb(165,163,163)" stroke="none" />
<path d="M6.000 10.000h2.000v1.000h-1.000v1.000h-4.000v-1.000h3.000z" fill="rgb(255,0,0)" stroke="none" />
<path d="M9.000 10.000h11.000v1.000h-11.000z" fill="rgb(255,0,0)" stroke="none" />
<path d="M20.000 10.000h2.000v1.000h-2.000z" fill="rgb(165,163,163)" stroke="none" />
<path d="M23.000 10.000h1.000v1.000h-1.000z" fill="rgb(165,163,163)" stroke="none" />
<path d="M1.000 11.000h2.000v1.000h-2.000z" fill="rgb(255,210,196)" stroke="none" />
<path d="M7.000 11.000h1.000v1.000h-1.000z" fill="rgb(255,60,0)" stroke="none" />
<path d="M9.000 11.000h1.000v1.000h-1.000z" fill="rgb(255,60,0)" stroke="none" />
<path d="M10.000 11.000h5.000v1.000h-5.000z" fill="rgb(255,114,0)" stroke="none" />
<path d="M15.000 11.000h2.000v1.000h-1.000v1.000h-2.000v-1.000h1.000z" fill="rgb(255,198,0)" stroke="none" />
<path d="M17.000 11.000h2.000v1.000h-2.000z" fill="rgb(255,156,0)" stroke="none" />
<path d="M19.000 11.000h3.000v1.000h-3.000z" fill="rgb(255,114,0)" stroke="none" />
<path d="M22.000 11.000h2.000v1.000h-2.000z" fill="rgb(255,60,0)" stroke="none" />
<path d="M24.000 11.000h2.000v1.000h-2.000z" fill="rgb(255,210,196)" stroke="none" />
<path d="M2.000 12.000h1.000v1.000h-1.000z" fill="rgb(219,219,219)" stroke="none" />
<path d="M3.000 12.000h8.000v1.000h-8.000z" fill="rgb(255,210,196)" stroke="none" />
<path d="M11.000 12.000h3.000v1.000h-3.000z" fill="rgb(255,156,0)" stroke="none" />
<path d="M16.000 12.000h8.000v1.000h-8.000z" fill="rgb(255,210,196)" stroke="none" />
<path d="M24.000 12.000h1.000v1.000h-1.000z" fill="rgb(219,219,219)" stroke="none" />
<path d="M3.000 13.000h1.000v1.000h-1.000z" fill="rgb(208,208,208)" stroke="none" />
<path d="M4.000 13.000h2.000v1.000h1.000v1.000h1.000v1.000h-2.000v-1.000h-1.000v-1.000h-1.000z" fill="rgb(228,105,85)" stroke="none" />
<path d="M6.000 13.000h3.000v1.000h1.000v2.000h2.000v1.000h1.000v1.000h2.000v1.000h-1.000v1.000h-1.000v-1.000h-1.000v-1.000h-1.000v-1.000h-2.000v-1.000h-1.000v-1.000h-1.000v-1.000h-1.000z" fill="rgb(216,91,71)" stroke="none" />
<path d="M9.000 13.000h2.000v1.000h2.000v1.000h1.000v1.000h3.000v-3.000h2.000v1.000h1.000v1.000h-2.000v2.000h-3.000v1.000h-2.000v-1.000h-1.000v-1.000h-2.000v-2.000h-1.000z" fill="rgb(225,96,55)" stroke="none" />
<path d="M11.000 13.000h5.000v1.000h-5.000z" fill="rgb(255,210,196)" stroke="none" />
<path d="M16.000 13.000h1.000v3.000h-3.000v-1.000h-1.000v-1.000h3.000z" fill="rgb(225,116,55)" stroke="none" />
<path d="M19.000 13.000h2.000v1.000h-2.000z" fill="rgb(216,91,71)" stroke="none" />
<path d="M21.000 13.000h2.000v1.000h-1.000v1.000h-1.000v1.000h-2.000v-1.000h1.000v-1.000h1.000z" fill="rgb(228,105,85)" stroke="none" />
<path d="M23.000 13.000h1.000v1.000h-1.000z" fill="rgb(208,208,208)" stroke="none" />
<path d="M4.000 14.000h1.000v1.000h-1.000z" fill="rgb(194,194,194)" stroke="none" />
<path d="M22.000 14.000h1.000v1.000h-1.000z" fill="rgb(194,194,194)" stroke="none" />
<path d="M5.000 15.000h1.000v1.000h-1.000z" fill="rgb(194,194,194)" stroke="none" />
<path d="M18.000 15.000h1.000v1.000h-1.000z" fill="rgb(216,91,71)" stroke="none" />
<path d="M21.000 15.000h1.000v1.000h-1.000z" fill="rgb(194,194,194)" stroke="none" />
<path d="M6.000 16.000h1.000v1.000h-1.000z" fill="rgb(227,227,227)" stroke="none" />
<path d="M7.000 16.000h1.000v1.000h-1.000z" fill="rgb(208,208,208)" stroke="none" />
<path d="M8.000 16.000h1.000v1.000h-1.000z" fill="rgb(228,105,85)" stroke="none" />
<path d="M18.000 16.000h1.000v1.000h-1.000z" fill="rgb(228,105,85)" stroke="none" />
<path d="M19.000 16.000h1.000v1.000h-1.000z" fill="rgb(208,208,208)" stroke="none" />
<path d="M20.000 16.000h1.000v1.000h-1.000z" fill="rgb(227,227,227)" stroke="none" />
<path d="M8.000 17.000h1.000v1.000h-1.000z" fill="rgb(194,194,194)" stroke="none" />
<path d="M9.000 17.000h2.000v1.000h1.000v1.000h1.000v1.000h-2.000v-1.000h-1.000v-1.000h-1.000z" fill="rgb(228,105,85)" stroke="none" />
<path d="M15.000 17.000h1.000v1.000h-1.000z" fill="rgb(216,91,71)" stroke="none" />
<path d="M16.000 17.000h2.000v1.000h-1.000v1.000h-1.000v1.000h-2.000v-1.000h1.000v-1.000h1.000z" fill="rgb(228,105,85)" stroke="none" />
<path d="M18.000 17.000h1.000v1.000h-1.000z" fill="rgb(194,194,194)" stroke="none" />
<path d="M9.000 18.000h1.000v1.000h-1.000z" fill="rgb(194,194,194)" stroke="none" />
<path d="M17.000 18.000h1.000v1.000h-1.000z" fill="rgb(194,194,194)" stroke="none" />
<path d="M10.000 19.000h1.000v1.000h-1.000z" fill="rgb(194,194,194)" stroke="none" />
<path d="M16.000 19.000h1.000v1.000h-1.000z" fill="rgb(194,194,194)" stroke="none" />
<path d="M11.000 20.000h1.000v1.000h-1.000z" fill="rgb(227,227,227)" stroke="none" />
<path d="M12.000 20.000h1.000v9.000h-1.000z" fill="rgb(165,163,163)" stroke="none" />
<path d="M13.000 20.000h1.000v9.000h-1.000z" fill="rgb(146,145,145)" stroke="none" />
<path d="M14.000 20.000h1.000v9.000h-1.000z" fill="rgb(165,163,163)" stroke="none" />
<path d="M15.000 20.000h1.000v1.000h-1.000z" fill="rgb(227,227,227)" stroke="none" />
<path d="M11.000 21.000h1.000v1.000h-1.000z" fill="rgb(219,219,219)" stroke="none" />
<path d="M15.000 21.000h1.000v1.000h-1.000z" fill="rgb(219,219,219)" stroke="none" />
<path d="M11.000 22.000h1.000v1.000h-1.000z" fill="rgb(208,208,208)" stroke="none" />
<path d="M15.000 22.000h1.000v1.000h-1.000z" fill="rgb(208,208,208)" stroke="none" />
<path d="M11.000 23.000h1.000v5.000h-1.000z" fill="rgb(194,194,194)" stroke="none" />
<path d="M15.000 23.000h1.000v4.000h-1.000z" fill="rgb(194,194,194)" stroke="none" />
<path d="M7.000 25.000h4.000v3.000h1.000v1.000h3.000v-2.000h1.000v-1.000h4.000v1.000h-3.000v1.000h-1.000v2.000h-3.000v1.000h1.000v1.000h-2.000v-2.000h-1.000v-1.000h-1.000v-3.000h-2.000v1.000h-1.000z" fill="rgb(0,0,0)" stroke="none" />
<path d="M8.000 26.000h2.000v3.000h1.000v1.000h1.000v3.000h2.000v1.000h1.000v-2.000h1.000v-1.000h1.000v-3.000h2.000v4.000h-1.000v1.000h-1.000v2.000h1.000v-1.000h2.000v-3.000h1.000v4.000h-1.000v1.000h1.000v2.000h-10.000v-1.000h-1.000v-3.000h-1.000v-3.000h-1.000v-3.000h-1.000v-1.000h1.000z" fill="rgb(247,142,86)" stroke="none" />
<path d="M6.000 27.000h1.000v3.000h-1.000z" fill="rgb(0,0,0)" stroke="none" />
<path d="M17.000 27.000h1.000v1.000h-1.000z" fill="rgb(223,121,67)" stroke="none" />
<path d="M18.000 27.000h2.000v4.000h-1.000v-3.000h-1.000z" fill="rgb(244,105,70)" stroke="none" />
<path d="M20.000 27.000h1.000v2.000h1.000v1.000h1.000v8.000h-2.000v-1.000h1.000v-2.000h-1.000v-1.000h1.000v-3.000h-2.000z" fill="rgb(0,0,0)" stroke="none" />
<path d="M7.000 28.000h1.000v1.000h-1.000z" fill="rgb(223,121,67)" stroke="none" />
<path d="M16.000 28.000h1.000v1.000h-1.000z" fill="rgb(244,105,70)" stroke="none" />
<path d="M7.000 29.000h1.000v1.000h-1.000z" fill="rgb(244,105,70)" stroke="none" />
<path d="M16.000 29.000h1.000v2.000h-1.000v1.000h-1.000v2.000h-1.000v-1.000h-2.000v-1.000h2.000v-1.000h1.000v-1.000h1.000z" fill="rgb(223,121,67)" stroke="none" />
<path d="M7.000 30.000h1.000v5.000h-1.000z" fill="rgb(0,0,0)" stroke="none" />
<path d="M13.000 30.000h2.000v1.000h-2.000z" fill="rgb(244,105,70)" stroke="none" />
<path d="M8.000 31.000h1.000v1.000h-1.000z" fill="rgb(223,121,67)" stroke="none" />
<path d="M19.000 31.000h1.000v1.000h-1.000z" fill="rgb(0,0,0)" stroke="none" />
<path d="M21.000 31.000h1.000v3.000h-1.000z" fill="rgb(244,105,70)" stroke="none" />
<path d="M8.000 32.000h1.000v3.000h-1.000z" fill="rgb(244,105,70)" stroke="none" />
<path d="M18.000 32.000h2.000v2.000h-2.000v1.000h-1.000v-2.000h1.000z" fill="rgb(223,121,67)" stroke="none" />
<path d="M9.000 34.000h1.000v1.000h-1.000z" fill="rgb(223,121,67)" stroke="none" />
<path d="M8.000 35.000h1.000v3.000h-1.000z" fill="rgb(0,0,0)" stroke="none" />
<path d="M9.000 35.000h1.000v3.000h-1.000z" fill="rgb(244,105,70)" stroke="none" />
<path d="M20.000 35.000h1.000v1.000h-1.000z" fill="rgb(0,0,0)" stroke="none" />
<path d="M21.000 35.000h1.000v2.000h-1.000z" fill="rgb(244,105,70)" stroke="none" />
<path d="M10.000 37.000h1.000v1.000h-1.000z" fill="rgb(223,121,67)" stroke="none" />
</svg>
