<?xml version='1.0' encoding='utf-8'?>
<!DOCTYPE svg PUBLIC '-//W3C//DTD SVG 1.1//EN' 'http://www.w3.org/Graphics/SVG/1.1/DTD/svg11.dtd'>
<svg version='1.1' id='Layer_1' xmlns='http://www.w3.org/2000/svg' xmlns:xlink='http://www.w3.org/1999/xlink' x='0px' y='px' width='57px' height='61px' viewBox='0 0 57 61' enable-background='new 0 0 57 61' xml:space='preserve'>
<path d="M0.000 0.000h57.000v61.000h-33.000v-1.000h1.000v-1.000h1.000v-2.000h1.000v-1.000h1.000v-2.000h1.000v-1.000h1.000v-1.000h1.000v-2.000h1.000v-1.000h1.000v-2.000h1.000v-1.000h1.000v-1.000h1.000v-2.000h1.000v-1.000h1.000v-1.000h1.000v-1.000h1.000v-1.000h1.000v-2.000h1.000v-1.000h1.000v-1.000h1.000v-2.000h1.000v-1.000h1.000v-2.000h1.000v-1.000h1.000v-1.000h1.000v-2.000h1.000v-1.000h1.000v-2.000h1.000v-1.000h1.000v-1.000h1.000v-1.000h1.000v-4.000h-1.000v-5.000h-1.000v-4.000h-1.000v-3.000h-1.000v-1.000h-2.000v-1.000h-5.000v1.000h-4.000v1.000h-2.000v1.000h-2.000v1.000h-2.000v1.000h-2.000v1.000h-2.000v1.000h-2.000v1.000h-2.000v1.000h-1.000v2.000h-1.000v2.000h-1.000v2.000h-1.000v2.000h-1.000v2.000h-1.000v2.000h-1.000v2.000h-1.000v2.000h-1.000v2.000h-1.000v2.000h-1.000v2.000h-1.000v2.000h-1.000v2.000h-1.000v2.000h-1.000v2.000h-1.000v2.000h-1.000v2.000h-1.000v2.000h-1.000v2.000h-1.000v2.000h-1.000v2.000h-1.000v2.000h-1.000v2.000h-1.000v2.000h-1.000v2.000h-1.000z" fill="rgb(255,255,255)" stroke="none" />
<path d="M44.000 2.000h5.000v1.000h-5.000z" fill="rgb(0,0,0)" stroke="none" />
<path d="M40.000 3.000h4.000v1.000h-4.000z" fill="rgb(0,0,0)" stroke="none" />
<path d="M44.000 3.000h3.000v2.000h-1.000v1.000h-1.000v1.000h-2.000v1.000h-5.000v1.000h-2.000v1.000h-2.000v1.000h-1.000v1.000h-1.000v1.000h-1.000v2.000h-1.000v2.000h-1.000v1.000h-1.000v2.000h-1.000v2.000h-1.000v2.000h-1.000v2.000h-1.000v2.000h-1.000v2.000h-1.000v2.000h-1.000v2.000h-1.000v2.000h-1.000v2.000h-1.000v1.000h-1.000v1.000h-1.000v1.000h-1.000v1.000h-1.000v3.000h-1.000v4.000h-1.000v3.000h-1.000v2.000h-1.000v2.000h-1.000v1.000h-1.000v3.000h-1.000v1.000h-5.000v-2.000h1.000v-2.000h1.000v-2.000h1.000v-2.000h1.000v-2.000h1.000v-2.000h1.000v-2.000h1.000v-2.000h1.000v-2.000h1.000v-2.000h1.000v-2.000h1.000v-2.000h1.000v-2.000h1.000v-2.000h1.000v-2.000h1.000v-2.000h1.000v-2.000h1.000v-2.000h1.000v-2.000h1.000v-2.000h1.000v-2.000h1.000v-2.000h1.000v-2.000h1.000v-2.000h1.000v-2.000h2.000v-1.000h2.000v-1.000h2.000v-1.000h2.000v-1.000h2.000v-1.000h2.000v-1.000h2.000v-1.000h4.000z" fill="rgb(147,169,168)" stroke="none" />
<path d="M47.000 3.000h1.000v1.000h-1.000z" fill="rgb(34,72,70)" stroke="none" />
<path d="M48.000 3.000h1.000v1.000h-1.000z" fill="rgb(82,99,98)" stroke="none" />
<path d="M49.000 3.000h2.000v1.000h-2.000z" fill="rgb(0,0,0)" stroke="none" />
<path d="M38.000 4.000h2.000v1.000h-2.000z" fill="rgb(0,0,0)" stroke="none" />
<path d="M47.000 4.000h1.000v3.000h1.000v3.000h1.000v1.000h-1.000v1.000h-1.000v1.000h-1.000v2.000h-1.000v1.000h-1.000v-8.000h-2.000v-1.000h2.000v-1.000h1.000v-1.000h1.000z" fill="rgb(127,156,155)" stroke="none" />
<path d="M48.000 4.000h1.000v3.000h-1.000z" fill="rgb(34,72,70)" stroke="none" />
<path d="M49.000 4.000h2.000v3.000h1.000v4.000h1.000v5.000h1.000v4.000h-1.000v1.000h-1.000v1.000h-1.000v1.000h-1.000v2.000h-1.000v1.000h-1.000v2.000h-1.000v1.000h-1.000v1.000h-1.000v2.000h-1.000v1.000h-1.000v2.000h-1.000v1.000h-1.000v1.000h-1.000v2.000h-1.000v1.000h-1.000v1.000h-1.000v1.000h-1.000v1.000h-1.000v2.000h-1.000v1.000h-1.000v1.000h-1.000v2.000h-1.000v1.000h-1.000v2.000h-1.000v1.000h-1.000v1.000h-1.000v2.000h-1.000v1.000h-1.000v2.000h-1.000v1.000h-1.000v1.000h-4.000v-1.000h1.000v-2.000h1.000v-1.000h1.000v-1.000h1.000v-2.000h1.000v-1.000h1.000v-1.000h1.000v-1.000h1.000v-2.000h1.000v-1.000h1.000v-1.000h1.000v-2.000h1.000v-1.000h1.000v-1.000h1.000v-2.000h1.000v-1.000h1.000v-1.000h1.000v-1.000h1.000v-2.000h1.000v-1.000h1.000v-1.000h1.000v-2.000h1.000v-1.000h1.000v-1.000h1.000v-1.000h1.000v-2.000h1.000v-1.000h1.000v-1.000h1.000v-2.000h1.000v-1.000h1.000v-1.000h1.000v-1.000h1.000v-2.000h1.000v-5.000h-1.000v-3.000h-1.000v-3.000h-1.000z" fill="rgb(82,99,98)" stroke="none" />
<path d="M51.000 4.000h1.000v3.000h-1.000z" fill="rgb(0,0,0)" stroke="none" />
<path d="M36.000 5.000h2.000v1.000h-2.000z" fill="rgb(0,0,0)" stroke="none" />
<path d="M34.000 6.000h2.000v1.000h-2.000z" fill="rgb(0,0,0)" stroke="none" />
<path d="M32.000 7.000h2.000v1.000h-2.000z" fill="rgb(0,0,0)" stroke="none" />
<path d="M49.000 7.000h1.000v3.000h-1.000z" fill="rgb(34,72,70)" stroke="none" />
<path d="M52.000 7.000h1.000v4.000h-1.000z" fill="rgb(0,0,0)" stroke="none" />
<path d="M30.000 8.000h2.000v1.000h-2.000z" fill="rgb(0,0,0)" stroke="none" />
<path d="M38.000 8.000h7.000v8.000h-1.000v2.000h-1.000v1.000h-1.000v2.000h-1.000v1.000h-2.000v1.000h-1.000v1.000h-1.000v1.000h-5.000v1.000h-4.000v-1.000h3.000v-1.000h5.000v-1.000h1.000v-1.000h1.000v-1.000h2.000v-1.000h1.000v-2.000h1.000v-1.000h1.000v-2.000h1.000v-6.000h-5.000v1.000h-3.000v-1.000h2.000z" fill="rgb(37,37,37)" stroke="none" />
<path d="M28.000 9.000h2.000v1.000h-2.000z" fill="rgb(0,0,0)" stroke="none" />
<path d="M39.000 9.000h1.000v1.000h-1.000z" fill="rgb(147,169,168)" stroke="none" />
<path d="M40.000 9.000h4.000v6.000h-1.000v2.000h-1.000v1.000h-1.000v2.000h-1.000v1.000h-2.000v1.000h-1.000v1.000h-1.000v1.000h-5.000v-2.000h-1.000v-5.000h1.000v-1.000h1.000v-1.000h1.000v-1.000h2.000v2.000h1.000v1.000h1.000v1.000h2.000v-2.000h1.000v-3.000h-3.000v1.000h-2.000v-1.000h1.000v-1.000h2.000v-1.000h1.000v-1.000h1.000z" fill="rgb(127,156,155)" stroke="none" />
<path d="M26.000 10.000h2.000v1.000h-2.000z" fill="rgb(0,0,0)" stroke="none" />
<path d="M34.000 10.000h2.000v1.000h-2.000z" fill="rgb(37,37,37)" stroke="none" />
<path d="M36.000 10.000h3.000v1.000h-1.000v1.000h-2.000v1.000h-1.000v1.000h-2.000v1.000h-1.000v-2.000h2.000v-2.000h2.000z" fill="rgb(147,169,168)" stroke="none" />
<path d="M50.000 10.000h1.000v3.000h-1.000z" fill="rgb(34,72,70)" stroke="none" />
<path d="M25.000 11.000h1.000v2.000h-1.000z" fill="rgb(0,0,0)" stroke="none" />
<path d="M33.000 11.000h1.000v2.000h-2.000v-1.000h1.000z" fill="rgb(37,37,37)" stroke="none" />
<path d="M49.000 11.000h1.000v2.000h1.000v5.000h-1.000v2.000h-1.000v1.000h-1.000v1.000h-1.000v1.000h-1.000v2.000h-1.000v1.000h-1.000v1.000h-1.000v2.000h-1.000v1.000h-1.000v1.000h-1.000v1.000h-1.000v2.000h-1.000v1.000h-1.000v1.000h-1.000v2.000h-1.000v1.000h-1.000v1.000h-1.000v1.000h-1.000v2.000h-1.000v1.000h-1.000v1.000h-1.000v2.000h-1.000v1.000h-1.000v1.000h-1.000v2.000h-1.000v1.000h-1.000v1.000h-1.000v1.000h-1.000v2.000h-1.000v1.000h-1.000v1.000h-1.000v2.000h-1.000v1.000h-4.000v-2.000h1.000v-1.000h1.000v-1.000h1.000v-2.000h1.000v-1.000h1.000v-1.000h1.000v-2.000h2.000v-1.000h1.000v-2.000h2.000v-3.000h1.000v-2.000h1.000v-1.000h1.000v-2.000h1.000v-1.000h1.000v-2.000h1.000v-1.000h1.000v-1.000h1.000v-2.000h1.000v-1.000h1.000v-2.000h1.000v-1.000h1.000v-1.000h1.000v-1.000h1.000v-2.000h1.000v-1.000h1.000v-2.000h1.000v-1.000h1.000v-1.000h1.000v-1.000h1.000v-3.000h1.000v-1.000h1.000v-2.000h1.000v-1.000h1.000z" fill="rgb(115,135,134)" stroke="none" />
<path d="M53.000 11.000h1.000v5.000h-1.000z" fill="rgb(0,0,0)" stroke="none" />
<path d="M24.000 13.000h1.000v2.000h-1.000z" fill="rgb(0,0,0)" stroke="none" />
<path d="M31.000 13.000h1.000v2.000h-1.000z" fill="rgb(37,37,37)" stroke="none" />
<path d="M37.000 13.000h3.000v3.000h-1.000v-2.000h-2.000z" fill="rgb(37,37,37)" stroke="none" />
<path d="M51.000 13.000h1.000v5.000h-1.000z" fill="rgb(34,72,70)" stroke="none" />
<path d="M35.000 14.000h2.000v1.000h-1.000v1.000h-1.000z" fill="rgb(37,37,37)" stroke="none" />
<path d="M37.000 14.000h2.000v2.000h-1.000v1.000h-1.000v-1.000h-1.000v-1.000h1.000z" fill="rgb(127,156,155)" stroke="none" />
<path d="M23.000 15.000h1.000v2.000h-1.000z" fill="rgb(0,0,0)" stroke="none" />
<path d="M30.000 15.000h1.000v2.000h-1.000z" fill="rgb(37,37,37)" stroke="none" />
<path d="M31.000 15.000h1.000v1.000h-1.000z" fill="rgb(147,169,168)" stroke="none" />
<path d="M36.000 16.000h1.000v1.000h-1.000z" fill="rgb(37,37,37)" stroke="none" />
<path d="M38.000 16.000h1.000v2.000h-2.000v-1.000h1.000z" fill="rgb(37,37,37)" stroke="none" />
<path d="M44.000 16.000h1.000v3.000h-1.000v1.000h-1.000v1.000h-1.000v-2.000h1.000v-1.000h1.000z" fill="rgb(127,156,155)" stroke="none" />
<path d="M54.000 16.000h1.000v4.000h-1.000z" fill="rgb(0,0,0)" stroke="none" />
<path d="M22.000 17.000h1.000v2.000h-1.000z" fill="rgb(0,0,0)" stroke="none" />
<path d="M29.000 17.000h1.000v5.000h1.000v2.000h-1.000v-1.000h-1.000z" fill="rgb(37,37,37)" stroke="none" />
<path d="M28.000 18.000h1.000v5.000h1.000v1.000h1.000v1.000h-3.000v1.000h-2.000v1.000h-1.000v1.000h-1.000v-2.000h1.000v-2.000h1.000v-2.000h1.000v-2.000h1.000z" fill="rgb(127,156,155)" stroke="none" />
<path d="M50.000 18.000h1.000v2.000h-1.000z" fill="rgb(34,72,70)" stroke="none" />
<path d="M21.000 19.000h1.000v2.000h-1.000z" fill="rgb(0,0,0)" stroke="none" />
<path d="M49.000 20.000h1.000v1.000h-1.000z" fill="rgb(34,72,70)" stroke="none" />
<path d="M53.000 20.000h1.000v1.000h-1.000z" fill="rgb(0,0,0)" stroke="none" />
<path d="M20.000 21.000h1.000v2.000h-1.000z" fill="rgb(0,0,0)" stroke="none" />
<path d="M41.000 21.000h1.000v1.000h-1.000z" fill="rgb(127,156,155)" stroke="none" />
<path d="M48.000 21.000h1.000v1.000h-1.000z" fill="rgb(34,72,70)" stroke="none" />
<path d="M52.000 21.000h1.000v1.000h-1.000z" fill="rgb(0,0,0)" stroke="none" />
<path d="M39.000 22.000h2.000v2.000h-1.000v1.000h-1.000v2.000h-1.000v1.000h-1.000v1.000h-1.000v1.000h-1.000v2.000h-1.000v1.000h-1.000v2.000h-1.000v1.000h-1.000v-2.000h1.000v-2.000h1.000v-6.000h-1.000v-1.000h5.000v-1.000h1.000v-1.000h1.000z" fill="rgb(127,156,155)" stroke="none" />
<path d="M47.000 22.000h1.000v1.000h-1.000z" fill="rgb(34,72,70)" stroke="none" />
<path d="M51.000 22.000h1.000v1.000h-1.000z" fill="rgb(0,0,0)" stroke="none" />
<path d="M19.000 23.000h1.000v2.000h-1.000z" fill="rgb(0,0,0)" stroke="none" />
<path d="M46.000 23.000h1.000v2.000h-1.000z" fill="rgb(34,72,70)" stroke="none" />
<path d="M50.000 23.000h1.000v2.000h-1.000z" fill="rgb(0,0,0)" stroke="none" />
<path d="M18.000 25.000h1.000v2.000h-1.000z" fill="rgb(0,0,0)" stroke="none" />
<path d="M45.000 25.000h1.000v1.000h-1.000z" fill="rgb(34,72,70)" stroke="none" />
<path d="M49.000 25.000h1.000v1.000h-1.000z" fill="rgb(0,0,0)" stroke="none" />
<path d="M26.000 26.000h2.000v1.000h-1.000v1.000h-2.000v-1.000h1.000z" fill="rgb(37,37,37)" stroke="none" />
<path d="M28.000 26.000h4.000v6.000h-1.000v2.000h-1.000v1.000h-1.000v1.000h-1.000v1.000h-2.000v1.000h-1.000v-3.000h-1.000v-5.000h1.000v-2.000h2.000v-1.000h1.000z" fill="rgb(127,156,155)" stroke="none" />
<path d="M32.000 26.000h1.000v6.000h-1.000z" fill="rgb(37,37,37)" stroke="none" />
<path d="M44.000 26.000h1.000v1.000h-1.000z" fill="rgb(34,72,70)" stroke="none" />
<path d="M48.000 26.000h1.000v2.000h-1.000z" fill="rgb(0,0,0)" stroke="none" />
<path d="M17.000 27.000h1.000v2.000h-1.000z" fill="rgb(0,0,0)" stroke="none" />
<path d="M43.000 27.000h1.000v2.000h-1.000z" fill="rgb(34,72,70)" stroke="none" />
<path d="M23.000 28.000h1.000v2.000h-1.000z" fill="rgb(127,156,155)" stroke="none" />
<path d="M24.000 28.000h1.000v2.000h-1.000z" fill="rgb(37,37,37)" stroke="none" />
<path d="M47.000 28.000h1.000v1.000h-1.000z" fill="rgb(0,0,0)" stroke="none" />
<path d="M16.000 29.000h1.000v2.000h-1.000z" fill="rgb(0,0,0)" stroke="none" />
<path d="M27.000 29.000h3.000v3.000h-2.000v-1.000h1.000v-1.000h-1.000v1.000h-1.000z" fill="rgb(37,37,37)" stroke="none" />
<path d="M42.000 29.000h1.000v1.000h-1.000z" fill="rgb(34,72,70)" stroke="none" />
<path d="M46.000 29.000h1.000v1.000h-1.000z" fill="rgb(0,0,0)" stroke="none" />
<path d="M22.000 30.000h1.000v5.000h1.000v3.000h-3.000v1.000h-3.000v-1.000h1.000v-2.000h1.000v-2.000h1.000v-2.000h1.000z" fill="rgb(127,156,155)" stroke="none" />
<path d="M23.000 30.000h1.000v5.000h-1.000z" fill="rgb(37,37,37)" stroke="none" />
<path d="M28.000 30.000h1.000v1.000h-1.000z" fill="rgb(127,156,155)" stroke="none" />
<path d="M41.000 30.000h1.000v1.000h-1.000z" fill="rgb(34,72,70)" stroke="none" />
<path d="M45.000 30.000h1.000v2.000h-1.000z" fill="rgb(0,0,0)" stroke="none" />
<path d="M15.000 31.000h1.000v2.000h-1.000z" fill="rgb(0,0,0)" stroke="none" />
<path d="M40.000 31.000h1.000v1.000h-1.000z" fill="rgb(34,72,70)" stroke="none" />
<path d="M31.000 32.000h1.000v2.000h-1.000z" fill="rgb(37,37,37)" stroke="none" />
<path d="M39.000 32.000h1.000v2.000h-1.000z" fill="rgb(34,72,70)" stroke="none" />
<path d="M44.000 32.000h1.000v1.000h-1.000z" fill="rgb(0,0,0)" stroke="none" />
<path d="M14.000 33.000h1.000v2.000h-1.000z" fill="rgb(0,0,0)" stroke="none" />
<path d="M43.000 33.000h1.000v2.000h-1.000z" fill="rgb(0,0,0)" stroke="none" />
<path d="M30.000 34.000h1.000v2.000h-1.000v1.000h-1.000v1.000h-2.000v1.000h-1.000v6.000h-1.000v3.000h-2.000v-1.000h1.000v-3.000h1.000v-5.000h-4.000v-1.000h3.000v-3.000h1.000v3.000h1.000v-1.000h2.000v-1.000h1.000v-1.000h1.000z" fill="rgb(37,37,37)" stroke="none" />
<path d="M38.000 34.000h1.000v1.000h-1.000z" fill="rgb(34,72,70)" stroke="none" />
<path d="M13.000 35.000h1.000v2.000h-1.000z" fill="rgb(0,0,0)" stroke="none" />
<path d="M37.000 35.000h1.000v1.000h-1.000z" fill="rgb(34,72,70)" stroke="none" />
<path d="M42.000 35.000h1.000v1.000h-1.000z" fill="rgb(0,0,0)" stroke="none" />
<path d="M30.000 36.000h1.000v1.000h-1.000z" fill="rgb(127,156,155)" stroke="none" />
<path d="M36.000 36.000h1.000v2.000h-1.000z" fill="rgb(34,72,70)" stroke="none" />
<path d="M41.000 36.000h1.000v1.000h-1.000z" fill="rgb(0,0,0)" stroke="none" />
<path d="M12.000 37.000h1.000v2.000h-1.000z" fill="rgb(0,0,0)" stroke="none" />
<path d="M29.000 37.000h1.000v2.000h-1.000v1.000h-1.000v2.000h-1.000v1.000h-1.000v-4.000h1.000v-1.000h2.000z" fill="rgb(127,156,155)" stroke="none" />
<path d="M40.000 37.000h1.000v2.000h-1.000z" fill="rgb(0,0,0)" stroke="none" />
<path d="M35.000 38.000h1.000v1.000h-1.000z" fill="rgb(34,72,70)" stroke="none" />
<path d="M11.000 39.000h1.000v2.000h-1.000z" fill="rgb(0,0,0)" stroke="none" />
<path d="M17.000 39.000h4.000v1.000h-3.000v1.000h-1.000v1.000h-1.000v1.000h-1.000v2.000h-1.000v-3.000h1.000v-1.000h1.000v-1.000h1.000z" fill="rgb(37,37,37)" stroke="none" />
<path d="M21.000 39.000h4.000v5.000h-1.000v3.000h-1.000v1.000h-1.000v1.000h-1.000v1.000h-1.000v1.000h-3.000v1.000h-3.000v1.000h-1.000v-4.000h1.000v-3.000h1.000v-2.000h1.000v2.000h1.000v1.000h1.000v1.000h2.000v-2.000h1.000v-3.000h-3.000v1.000h-2.000v-2.000h1.000v-1.000h1.000v-1.000h3.000z" fill="rgb(127,156,155)" stroke="none" />
<path d="M34.000 39.000h1.000v1.000h-1.000z" fill="rgb(34,72,70)" stroke="none" />
<path d="M39.000 39.000h1.000v1.000h-1.000z" fill="rgb(0,0,0)" stroke="none" />
<path d="M33.000 40.000h1.000v1.000h-1.000z" fill="rgb(34,72,70)" stroke="none" />
<path d="M38.000 40.000h1.000v1.000h-1.000z" fill="rgb(0,0,0)" stroke="none" />
<path d="M10.000 41.000h1.000v2.000h-1.000z" fill="rgb(0,0,0)" stroke="none" />
<path d="M32.000 41.000h1.000v2.000h-1.000z" fill="rgb(34,72,70)" stroke="none" />
<path d="M37.000 41.000h1.000v1.000h-1.000z" fill="rgb(0,0,0)" stroke="none" />
<path d="M36.000 42.000h1.000v1.000h-1.000z" fill="rgb(0,0,0)" stroke="none" />
<path d="M9.000 43.000h1.000v2.000h-1.000z" fill="rgb(0,0,0)" stroke="none" />
<path d="M15.000 43.000h1.000v1.000h-1.000z" fill="rgb(147,169,168)" stroke="none" />
<path d="M18.000 43.000h3.000v3.000h-1.000v-2.000h-2.000z" fill="rgb(37,37,37)" stroke="none" />
<path d="M31.000 43.000h1.000v1.000h-1.000z" fill="rgb(34,72,70)" stroke="none" />
<path d="M35.000 43.000h1.000v2.000h-1.000z" fill="rgb(0,0,0)" stroke="none" />
<path d="M16.000 44.000h2.000v1.000h-1.000v1.000h-1.000z" fill="rgb(37,37,37)" stroke="none" />
<path d="M18.000 44.000h2.000v2.000h-1.000v1.000h-1.000v-1.000h-1.000v-1.000h1.000z" fill="rgb(127,156,155)" stroke="none" />
<path d="M30.000 44.000h1.000v1.000h-1.000z" fill="rgb(34,72,70)" stroke="none" />
<path d="M8.000 45.000h1.000v2.000h-1.000z" fill="rgb(0,0,0)" stroke="none" />
<path d="M13.000 45.000h1.000v4.000h-1.000z" fill="rgb(37,37,37)" stroke="none" />
<path d="M14.000 45.000h1.000v1.000h-1.000z" fill="rgb(147,169,168)" stroke="none" />
<path d="M29.000 45.000h1.000v2.000h-1.000z" fill="rgb(34,72,70)" stroke="none" />
<path d="M34.000 45.000h1.000v1.000h-1.000z" fill="rgb(0,0,0)" stroke="none" />
<path d="M17.000 46.000h1.000v1.000h-1.000z" fill="rgb(37,37,37)" stroke="none" />
<path d="M19.000 46.000h1.000v2.000h-2.000v-1.000h1.000z" fill="rgb(37,37,37)" stroke="none" />
<path d="M33.000 46.000h1.000v1.000h-1.000z" fill="rgb(0,0,0)" stroke="none" />
<path d="M7.000 47.000h1.000v2.000h-1.000z" fill="rgb(0,0,0)" stroke="none" />
<path d="M28.000 47.000h1.000v1.000h-1.000z" fill="rgb(34,72,70)" stroke="none" />
<path d="M32.000 47.000h1.000v2.000h-1.000z" fill="rgb(0,0,0)" stroke="none" />
<path d="M22.000 48.000h1.000v2.000h-1.000v1.000h-2.000v-1.000h1.000v-1.000h1.000z" fill="rgb(37,37,37)" stroke="none" />
<path d="M27.000 48.000h1.000v1.000h-1.000z" fill="rgb(34,72,70)" stroke="none" />
<path d="M6.000 49.000h1.000v2.000h-1.000z" fill="rgb(0,0,0)" stroke="none" />
<path d="M12.000 49.000h1.000v4.000h1.000v-1.000h3.000v-1.000h3.000v1.000h-2.000v1.000h-3.000v1.000h-2.000v3.000h-1.000v-2.000h-1.000v-1.000h1.000z" fill="rgb(37,37,37)" stroke="none" />
<path d="M26.000 49.000h1.000v2.000h-1.000z" fill="rgb(34,72,70)" stroke="none" />
<path d="M31.000 49.000h1.000v1.000h-1.000z" fill="rgb(0,0,0)" stroke="none" />
<path d="M30.000 50.000h1.000v2.000h-1.000z" fill="rgb(0,0,0)" stroke="none" />
<path d="M5.000 51.000h1.000v2.000h-1.000z" fill="rgb(0,0,0)" stroke="none" />
<path d="M25.000 51.000h1.000v1.000h-1.000z" fill="rgb(34,72,70)" stroke="none" />
<path d="M11.000 52.000h1.000v2.000h-1.000z" fill="rgb(127,156,155)" stroke="none" />
<path d="M18.000 52.000h2.000v1.000h-1.000v1.000h-1.000v1.000h-1.000v2.000h-1.000v1.000h-1.000v1.000h-1.000v-2.000h-1.000v-3.000h2.000v-1.000h3.000z" fill="rgb(127,156,155)" stroke="none" />
<path d="M24.000 52.000h1.000v1.000h-1.000z" fill="rgb(34,72,70)" stroke="none" />
<path d="M29.000 52.000h1.000v1.000h-1.000z" fill="rgb(0,0,0)" stroke="none" />
<path d="M4.000 53.000h1.000v2.000h-1.000z" fill="rgb(0,0,0)" stroke="none" />
<path d="M23.000 53.000h1.000v1.000h-1.000z" fill="rgb(34,72,70)" stroke="none" />
<path d="M28.000 53.000h1.000v1.000h-1.000z" fill="rgb(0,0,0)" stroke="none" />
<path d="M10.000 54.000h1.000v1.000h-1.000z" fill="rgb(127,156,155)" stroke="none" />
<path d="M22.000 54.000h1.000v2.000h-1.000z" fill="rgb(34,72,70)" stroke="none" />
<path d="M27.000 54.000h1.000v2.000h-1.000z" fill="rgb(0,0,0)" stroke="none" />
<path d="M3.000 55.000h1.000v2.000h-1.000z" fill="rgb(0,0,0)" stroke="none" />
<path d="M10.000 55.000h1.000v1.000h-1.000z" fill="rgb(37,37,37)" stroke="none" />
<path d="M11.000 55.000h1.000v2.000h1.000v3.000h-1.000v1.000h-4.000v-1.000h1.000v-2.000h1.000v-2.000h1.000z" fill="rgb(127,156,155)" stroke="none" />
<path d="M9.000 56.000h1.000v2.000h-1.000v2.000h-1.000v-3.000h1.000z" fill="rgb(37,37,37)" stroke="none" />
<path d="M21.000 56.000h1.000v1.000h-1.000z" fill="rgb(34,72,70)" stroke="none" />
<path d="M26.000 56.000h1.000v1.000h-1.000z" fill="rgb(0,0,0)" stroke="none" />
<path d="M2.000 57.000h1.000v2.000h-1.000z" fill="rgb(0,0,0)" stroke="none" />
<path d="M13.000 57.000h1.000v3.000h-1.000z" fill="rgb(37,37,37)" stroke="none" />
<path d="M20.000 57.000h1.000v1.000h-1.000z" fill="rgb(34,72,70)" stroke="none" />
<path d="M25.000 57.000h1.000v2.000h-1.000z" fill="rgb(0,0,0)" stroke="none" />
<path d="M19.000 58.000h1.000v2.000h-1.000z" fill="rgb(34,72,70)" stroke="none" />
<path d="M1.000 59.000h1.000v2.000h-1.000z" fill="rgb(0,0,0)" stroke="none" />
<path d="M24.000 59.000h1.000v1.000h-1.000z" fill="rgb(0,0,0)" stroke="none" />
<path d="M7.000 60.000h1.000v1.000h-1.000z" fill="rgb(37,37,37)" stroke="none" />
<path d="M12.000 60.000h1.000v1.000h-1.000z" fill="rgb(37,37,37)" stroke="none" />
<path d="M13.000 60.000h1.000v1.000h-1.000z" fill="rgb(127,156,155)" stroke="none" />
<path d="M18.000 60.000h1.000v1.000h-1.000z" fill="rgb(34,72,70)" stroke="none" />
<path d="M23.000 60.000h1.000v1.000h-1.000z" fill="rgb(0,0,0)" stroke="none" />
</svg>
