<?xml version='1.0' encoding='utf-8'?>
<!DOCTYPE svg PUBLIC '-//W3C//DTD SVG 1.1//EN' 'http://www.w3.org/Graphics/SVG/1.1/DTD/svg11.dtd'>
<svg version='1.1' id='Layer_1' xmlns='http://www.w3.org/2000/svg' xmlns:xlink='http://www.w3.org/1999/xlink' x='0px' y='px' width='28px' height='75px' viewBox='0 0 28 75' enable-background='new 0 0 28 75' xml:space='preserve'>
<path d="M15.000 1.000h1.000v1.000h-1.000z" fill="rgb(0,0,0)" stroke="none" />
<path d="M14.000 2.000h1.000v2.000h-1.000z" fill="rgb(0,0,0)" stroke="none" />
<path d="M15.000 2.000h1.000v2.000h-1.000z" fill="rgb(217,217,217)" stroke="none" />
<path d="M16.000 2.000h1.000v2.000h-1.000z" fill="rgb(0,0,0)" stroke="none" />
<path d="M13.000 4.000h1.000v2.000h-1.000z" fill="rgb(0,0,0)" stroke="none" />
<path d="M14.000 4.000h1.000v3.000h-1.000v1.000h-1.000v-2.000h1.000z" fill="rgb(217,217,217)" stroke="none" />
<path d="M15.000 4.000h1.000v1.000h1.000v2.000h1.000v2.000h1.000v2.000h1.000v4.000h1.000v3.000h1.000v10.000h-1.000v9.000h-1.000v11.000h-1.000v3.000h-1.000v-1.000h-1.000v-2.000h1.000v-1.000h1.000v-1.000h-1.000v-1.000h-1.000v-1.000h-1.000v-2.000h1.000v-1.000h1.000v-1.000h1.000v-1.000h-1.000v-1.000h-1.000v-2.000h-1.000v-1.000h1.000v-2.000h1.000v-1.000h1.000v-2.000h1.000v-1.000h-1.000v-1.000h-1.000v-1.000h-1.000v-1.000h-1.000v-3.000h1.000v-1.000h1.000v-1.000h1.000v-1.000h1.000v-2.000h-1.000v-2.000h-1.000v-2.000h-1.000v-2.000h-1.000v-4.000h-1.000v2.000h-1.000v2.000h-1.000v2.000h-1.000v1.000h-1.000v2.000h-1.000v2.000h-1.000v1.000h1.000v1.000h1.000v1.000h1.000v1.000h1.000v1.000h1.000v2.000h-1.000v1.000h-1.000v1.000h-1.000v1.000h-1.000v-1.000h-1.000v-7.000h-1.000v-3.000h1.000v-2.000h1.000v-2.000h1.000v-2.000h1.000v-2.000h1.000v-2.000h1.000v-1.000h1.000z" fill="rgb(194,194,194)" stroke="none" />
<path d="M16.000 4.000h1.000v1.000h-1.000z" fill="rgb(217,217,217)" stroke="none" />
<path d="M17.000 4.000h1.000v2.000h-1.000z" fill="rgb(0,0,0)" stroke="none" />
<path d="M12.000 6.000h1.000v2.000h-1.000z" fill="rgb(0,0,0)" stroke="none" />
<path d="M17.000 6.000h1.000v1.000h-1.000z" fill="rgb(217,217,217)" stroke="none" />
<path d="M18.000 6.000h1.000v2.000h-1.000z" fill="rgb(0,0,0)" stroke="none" />
<path d="M11.000 8.000h1.000v2.000h-1.000z" fill="rgb(0,0,0)" stroke="none" />
<path d="M12.000 8.000h1.000v2.000h-1.000z" fill="rgb(217,217,217)" stroke="none" />
<path d="M15.000 8.000h1.000v4.000h-2.000v-2.000h1.000z" fill="rgb(114,114,114)" stroke="none" />
<path d="M18.000 8.000h1.000v1.000h-1.000z" fill="rgb(217,217,217)" stroke="none" />
<path d="M19.000 8.000h1.000v3.000h-1.000z" fill="rgb(0,0,0)" stroke="none" />
<path d="M10.000 10.000h1.000v2.000h-1.000z" fill="rgb(0,0,0)" stroke="none" />
<path d="M11.000 10.000h1.000v2.000h-1.000z" fill="rgb(217,217,217)" stroke="none" />
<path d="M20.000 11.000h1.000v2.000h-1.000z" fill="rgb(0,0,0)" stroke="none" />
<path d="M9.000 12.000h1.000v2.000h-1.000z" fill="rgb(0,0,0)" stroke="none" />
<path d="M10.000 12.000h1.000v2.000h-1.000z" fill="rgb(217,217,217)" stroke="none" />
<path d="M13.000 12.000h1.000v2.000h-1.000z" fill="rgb(114,114,114)" stroke="none" />
<path d="M14.000 12.000h2.000v2.000h1.000v2.000h1.000v2.000h1.000v2.000h-1.000v1.000h-1.000v1.000h-1.000v1.000h-1.000v1.000h-1.000v-1.000h-1.000v-1.000h-1.000v-1.000h-1.000v-1.000h-1.000v-1.000h1.000v-2.000h1.000v-2.000h1.000v-1.000h1.000z" fill="rgb(194,194,194)" stroke="none" />
<path d="M16.000 12.000h1.000v2.000h-1.000z" fill="rgb(114,114,114)" stroke="none" />
<path d="M20.000 13.000h1.000v2.000h-1.000z" fill="rgb(217,217,217)" stroke="none" />
<path d="M21.000 13.000h1.000v2.000h-1.000z" fill="rgb(0,0,0)" stroke="none" />
<path d="M8.000 14.000h1.000v2.000h-1.000z" fill="rgb(0,0,0)" stroke="none" />
<path d="M9.000 14.000h1.000v2.000h-1.000z" fill="rgb(217,217,217)" stroke="none" />
<path d="M12.000 14.000h1.000v1.000h-1.000z" fill="rgb(114,114,114)" stroke="none" />
<path d="M17.000 14.000h1.000v2.000h-1.000z" fill="rgb(114,114,114)" stroke="none" />
<path d="M11.000 15.000h1.000v2.000h-1.000z" fill="rgb(114,114,114)" stroke="none" />
<path d="M21.000 15.000h1.000v2.000h1.000v6.000h-1.000v-5.000h-1.000z" fill="rgb(217,217,217)" stroke="none" />
<path d="M22.000 15.000h1.000v2.000h-1.000z" fill="rgb(0,0,0)" stroke="none" />
<path d="M7.000 16.000h1.000v2.000h-1.000z" fill="rgb(0,0,0)" stroke="none" />
<path d="M8.000 16.000h1.000v2.000h-1.000z" fill="rgb(217,217,217)" stroke="none" />
<path d="M18.000 16.000h1.000v2.000h-1.000z" fill="rgb(114,114,114)" stroke="none" />
<path d="M10.000 17.000h1.000v2.000h-1.000z" fill="rgb(114,114,114)" stroke="none" />
<path d="M23.000 17.000h1.000v6.000h-1.000z" fill="rgb(0,0,0)" stroke="none" />
<path d="M6.000 18.000h1.000v5.000h-1.000z" fill="rgb(0,0,0)" stroke="none" />
<path d="M7.000 18.000h1.000v3.000h1.000v7.000h1.000v7.000h1.000v6.000h1.000v13.000h1.000v4.000h-1.000v-3.000h-1.000v-8.000h-1.000v-8.000h-1.000v-8.000h-1.000v-8.000h-1.000z" fill="rgb(217,217,217)" stroke="none" />
<path d="M19.000 18.000h1.000v2.000h-1.000z" fill="rgb(114,114,114)" stroke="none" />
<path d="M9.000 19.000h1.000v1.000h-1.000z" fill="rgb(114,114,114)" stroke="none" />
<path d="M10.000 20.000h1.000v1.000h-1.000z" fill="rgb(114,114,114)" stroke="none" />
<path d="M18.000 20.000h1.000v1.000h-1.000z" fill="rgb(114,114,114)" stroke="none" />
<path d="M11.000 21.000h1.000v1.000h-1.000z" fill="rgb(114,114,114)" stroke="none" />
<path d="M17.000 21.000h1.000v1.000h-1.000z" fill="rgb(114,114,114)" stroke="none" />
<path d="M12.000 22.000h1.000v1.000h-1.000z" fill="rgb(114,114,114)" stroke="none" />
<path d="M16.000 22.000h1.000v1.000h-1.000z" fill="rgb(114,114,114)" stroke="none" />
<path d="M7.000 23.000h1.000v8.000h-1.000z" fill="rgb(0,0,0)" stroke="none" />
<path d="M13.000 23.000h1.000v1.000h-1.000z" fill="rgb(114,114,114)" stroke="none" />
<path d="M15.000 23.000h1.000v3.000h-2.000v-2.000h1.000z" fill="rgb(114,114,114)" stroke="none" />
<path d="M22.000 23.000h1.000v10.000h-1.000z" fill="rgb(0,0,0)" stroke="none" />
<path d="M13.000 26.000h1.000v1.000h-1.000z" fill="rgb(114,114,114)" stroke="none" />
<path d="M14.000 26.000h2.000v1.000h1.000v1.000h1.000v1.000h1.000v1.000h-1.000v2.000h-1.000v1.000h-1.000v2.000h-1.000v-1.000h-1.000v-1.000h-1.000v-2.000h-1.000v-1.000h-1.000v-1.000h1.000v-1.000h1.000v-1.000h1.000z" fill="rgb(194,194,194)" stroke="none" />
<path d="M16.000 26.000h1.000v1.000h-1.000z" fill="rgb(114,114,114)" stroke="none" />
<path d="M12.000 27.000h1.000v1.000h-1.000z" fill="rgb(114,114,114)" stroke="none" />
<path d="M17.000 27.000h1.000v1.000h-1.000z" fill="rgb(114,114,114)" stroke="none" />
<path d="M11.000 28.000h1.000v1.000h-1.000z" fill="rgb(114,114,114)" stroke="none" />
<path d="M18.000 28.000h1.000v1.000h-1.000z" fill="rgb(114,114,114)" stroke="none" />
<path d="M21.000 28.000h1.000v5.000h-1.000z" fill="rgb(217,217,217)" stroke="none" />
<path d="M10.000 29.000h1.000v1.000h-1.000z" fill="rgb(114,114,114)" stroke="none" />
<path d="M19.000 29.000h1.000v1.000h-1.000z" fill="rgb(114,114,114)" stroke="none" />
<path d="M10.000 30.000h1.000v1.000h1.000v2.000h1.000v1.000h1.000v1.000h1.000v1.000h-1.000v1.000h-1.000v2.000h-1.000v1.000h1.000v1.000h1.000v1.000h1.000v2.000h-1.000v1.000h-1.000v1.000h-1.000v-5.000h-1.000v-6.000h-1.000z" fill="rgb(194,194,194)" stroke="none" />
<path d="M11.000 30.000h1.000v1.000h-1.000z" fill="rgb(114,114,114)" stroke="none" />
<path d="M18.000 30.000h1.000v2.000h-1.000z" fill="rgb(114,114,114)" stroke="none" />
<path d="M8.000 31.000h1.000v8.000h-1.000z" fill="rgb(0,0,0)" stroke="none" />
<path d="M12.000 31.000h1.000v2.000h-1.000z" fill="rgb(114,114,114)" stroke="none" />
<path d="M17.000 32.000h1.000v1.000h-1.000z" fill="rgb(114,114,114)" stroke="none" />
<path d="M13.000 33.000h1.000v1.000h-1.000z" fill="rgb(114,114,114)" stroke="none" />
<path d="M16.000 33.000h1.000v2.000h-1.000z" fill="rgb(114,114,114)" stroke="none" />
<path d="M21.000 33.000h1.000v10.000h-1.000z" fill="rgb(0,0,0)" stroke="none" />
<path d="M14.000 34.000h1.000v1.000h-1.000z" fill="rgb(114,114,114)" stroke="none" />
<path d="M15.000 35.000h1.000v1.000h-1.000z" fill="rgb(114,114,114)" stroke="none" />
<path d="M14.000 36.000h1.000v1.000h-1.000z" fill="rgb(114,114,114)" stroke="none" />
<path d="M15.000 36.000h1.000v2.000h1.000v1.000h1.000v1.000h-1.000v1.000h-1.000v1.000h-1.000v-1.000h-1.000v-1.000h-1.000v-1.000h1.000v-2.000h1.000z" fill="rgb(194,194,194)" stroke="none" />
<path d="M16.000 36.000h1.000v2.000h-1.000z" fill="rgb(114,114,114)" stroke="none" />
<path d="M13.000 37.000h1.000v2.000h-1.000z" fill="rgb(114,114,114)" stroke="none" />
<path d="M20.000 37.000h1.000v6.000h-1.000z" fill="rgb(217,217,217)" stroke="none" />
<path d="M17.000 38.000h1.000v1.000h-1.000z" fill="rgb(114,114,114)" stroke="none" />
<path d="M9.000 39.000h1.000v8.000h-1.000z" fill="rgb(0,0,0)" stroke="none" />
<path d="M12.000 39.000h1.000v1.000h-1.000z" fill="rgb(114,114,114)" stroke="none" />
<path d="M18.000 39.000h1.000v1.000h-1.000z" fill="rgb(114,114,114)" stroke="none" />
<path d="M13.000 40.000h1.000v1.000h-1.000z" fill="rgb(114,114,114)" stroke="none" />
<path d="M17.000 40.000h1.000v1.000h-1.000z" fill="rgb(114,114,114)" stroke="none" />
<path d="M14.000 41.000h1.000v1.000h-1.000z" fill="rgb(114,114,114)" stroke="none" />
<path d="M16.000 41.000h1.000v1.000h-1.000z" fill="rgb(114,114,114)" stroke="none" />
<path d="M15.000 42.000h1.000v2.000h-1.000z" fill="rgb(114,114,114)" stroke="none" />
<path d="M20.000 43.000h1.000v10.000h-1.000z" fill="rgb(0,0,0)" stroke="none" />
<path d="M14.000 44.000h1.000v1.000h-1.000z" fill="rgb(114,114,114)" stroke="none" />
<path d="M15.000 44.000h1.000v1.000h1.000v1.000h1.000v1.000h-1.000v1.000h-1.000v1.000h-1.000v-1.000h-1.000v-1.000h-1.000v-1.000h1.000v-1.000h1.000z" fill="rgb(194,194,194)" stroke="none" />
<path d="M16.000 44.000h1.000v1.000h-1.000z" fill="rgb(114,114,114)" stroke="none" />
<path d="M13.000 45.000h1.000v1.000h-1.000z" fill="rgb(114,114,114)" stroke="none" />
<path d="M17.000 45.000h1.000v1.000h-1.000z" fill="rgb(114,114,114)" stroke="none" />
<path d="M12.000 46.000h1.000v1.000h-1.000z" fill="rgb(114,114,114)" stroke="none" />
<path d="M18.000 46.000h1.000v1.000h-1.000z" fill="rgb(114,114,114)" stroke="none" />
<path d="M10.000 47.000h1.000v8.000h-1.000z" fill="rgb(0,0,0)" stroke="none" />
<path d="M12.000 47.000h1.000v1.000h1.000v2.000h-1.000v1.000h-1.000z" fill="rgb(194,194,194)" stroke="none" />
<path d="M13.000 47.000h1.000v1.000h-1.000z" fill="rgb(114,114,114)" stroke="none" />
<path d="M17.000 47.000h1.000v1.000h-1.000z" fill="rgb(114,114,114)" stroke="none" />
<path d="M14.000 48.000h1.000v1.000h1.000v-1.000h1.000v2.000h-3.000z" fill="rgb(114,114,114)" stroke="none" />
<path d="M19.000 48.000h1.000v5.000h-1.000z" fill="rgb(217,217,217)" stroke="none" />
<path d="M13.000 50.000h1.000v1.000h-1.000z" fill="rgb(114,114,114)" stroke="none" />
<path d="M14.000 50.000h3.000v1.000h1.000v2.000h-1.000v2.000h-1.000v1.000h-1.000v-2.000h-1.000v-2.000h-1.000v-1.000h1.000z" fill="rgb(194,194,194)" stroke="none" />
<path d="M17.000 50.000h1.000v1.000h-1.000z" fill="rgb(114,114,114)" stroke="none" />
<path d="M12.000 51.000h1.000v1.000h-1.000z" fill="rgb(114,114,114)" stroke="none" />
<path d="M18.000 51.000h1.000v2.000h-1.000z" fill="rgb(114,114,114)" stroke="none" />
<path d="M12.000 52.000h1.000v2.000h-1.000z" fill="rgb(194,194,194)" stroke="none" />
<path d="M13.000 52.000h1.000v2.000h-1.000z" fill="rgb(114,114,114)" stroke="none" />
<path d="M17.000 53.000h1.000v2.000h-1.000z" fill="rgb(114,114,114)" stroke="none" />
<path d="M18.000 53.000h1.000v4.000h-2.000v-2.000h1.000z" fill="rgb(194,194,194)" stroke="none" />
<path d="M19.000 53.000h1.000v2.000h2.000v1.000h-2.000v2.000h-4.000v-1.000h3.000z" fill="rgb(0,0,0)" stroke="none" />
<path d="M13.000 54.000h1.000v2.000h1.000v2.000h-2.000z" fill="rgb(194,194,194)" stroke="none" />
<path d="M14.000 54.000h1.000v2.000h-1.000z" fill="rgb(114,114,114)" stroke="none" />
<path d="M11.000 55.000h1.000v3.000h4.000v1.000h-5.000v-2.000h-4.000v-1.000h4.000z" fill="rgb(0,0,0)" stroke="none" />
<path d="M16.000 55.000h1.000v2.000h-1.000v1.000h-1.000v-2.000h1.000z" fill="rgb(114,114,114)" stroke="none" />
<path d="M20.000 56.000h1.000v1.000h-1.000z" fill="rgb(77,144,139)" stroke="none" />
<path d="M21.000 56.000h1.000v2.000h1.000v1.000h1.000v1.000h-5.000v1.000h-11.000v-1.000h-3.000v-1.000h-2.000v-1.000h5.000v-1.000h1.000v1.000h1.000v1.000h10.000v-2.000h1.000z" fill="rgb(0,116,107)" stroke="none" />
<path d="M22.000 56.000h1.000v1.000h-1.000z" fill="rgb(0,0,0)" stroke="none" />
<path d="M3.000 57.000h4.000v1.000h-4.000z" fill="rgb(0,0,0)" stroke="none" />
<path d="M7.000 57.000h1.000v1.000h-1.000z" fill="rgb(77,144,139)" stroke="none" />
<path d="M9.000 57.000h2.000v2.000h-1.000v-1.000h-1.000z" fill="rgb(23,90,85)" stroke="none" />
<path d="M22.000 57.000h1.000v1.000h-1.000z" fill="rgb(77,144,139)" stroke="none" />
<path d="M23.000 57.000h1.000v1.000h-1.000z" fill="rgb(0,0,0)" stroke="none" />
<path d="M2.000 58.000h1.000v2.000h-2.000v-1.000h1.000z" fill="rgb(0,0,0)" stroke="none" />
<path d="M16.000 58.000h4.000v1.000h-4.000z" fill="rgb(23,90,85)" stroke="none" />
<path d="M23.000 58.000h1.000v1.000h-1.000z" fill="rgb(77,144,139)" stroke="none" />
<path d="M24.000 58.000h1.000v1.000h-1.000z" fill="rgb(0,0,0)" stroke="none" />
<path d="M3.000 59.000h2.000v1.000h-2.000z" fill="rgb(77,144,139)" stroke="none" />
<path d="M24.000 59.000h1.000v1.000h-1.000z" fill="rgb(77,144,139)" stroke="none" />
<path d="M25.000 59.000h1.000v1.000h1.000v1.000h-4.000v-1.000h2.000z" fill="rgb(0,0,0)" stroke="none" />
<path d="M3.000 60.000h3.000v1.000h-3.000z" fill="rgb(0,0,0)" stroke="none" />
<path d="M6.000 60.000h2.000v1.000h-2.000z" fill="rgb(77,144,139)" stroke="none" />
<path d="M19.000 60.000h4.000v1.000h-4.000z" fill="rgb(77,144,139)" stroke="none" />
<path d="M6.000 61.000h3.000v1.000h-3.000z" fill="rgb(0,0,0)" stroke="none" />
<path d="M9.000 61.000h6.000v1.000h-6.000z" fill="rgb(77,144,139)" stroke="none" />
<path d="M15.000 61.000h8.000v1.000h-4.000v1.000h3.000v1.000h-3.000v1.000h-1.000v2.000h-3.000v1.000h1.000v1.000h-2.000v-2.000h-1.000v-1.000h-1.000v-3.000h-2.000v1.000h-1.000v-2.000h6.000v1.000h-2.000v2.000h1.000v1.000h3.000v-2.000h1.000v-2.000h-3.000z" fill="rgb(0,0,0)" stroke="none" />
<path d="M15.000 62.000h3.000v2.000h-1.000v-1.000h-1.000v3.000h-1.000z" fill="rgb(63,40,18)" stroke="none" />
<path d="M10.000 63.000h2.000v3.000h1.000v1.000h1.000v3.000h2.000v1.000h1.000v-2.000h1.000v-1.000h1.000v-3.000h2.000v4.000h-1.000v1.000h-1.000v2.000h1.000v-1.000h2.000v-3.000h1.000v4.000h-1.000v1.000h1.000v2.000h-10.000v-1.000h-1.000v-3.000h-1.000v-3.000h-1.000v-3.000h-1.000v-1.000h1.000z" fill="rgb(247,142,86)" stroke="none" />
<path d="M13.000 63.000h1.000v2.000h-1.000z" fill="rgb(63,40,18)" stroke="none" />
<path d="M14.000 63.000h1.000v3.000h-1.000z" fill="rgb(96,57,19)" stroke="none" />
<path d="M16.000 63.000h1.000v3.000h-1.000z" fill="rgb(96,57,19)" stroke="none" />
<path d="M8.000 64.000h1.000v3.000h-1.000z" fill="rgb(0,0,0)" stroke="none" />
<path d="M19.000 64.000h1.000v1.000h-1.000z" fill="rgb(223,121,67)" stroke="none" />
<path d="M20.000 64.000h2.000v4.000h-1.000v-3.000h-1.000z" fill="rgb(244,105,70)" stroke="none" />
<path d="M22.000 64.000h1.000v2.000h1.000v1.000h1.000v8.000h-2.000v-1.000h1.000v-2.000h-1.000v-1.000h1.000v-3.000h-2.000z" fill="rgb(0,0,0)" stroke="none" />
<path d="M9.000 65.000h1.000v1.000h-1.000z" fill="rgb(223,121,67)" stroke="none" />
<path d="M18.000 65.000h1.000v1.000h-1.000z" fill="rgb(244,105,70)" stroke="none" />
<path d="M9.000 66.000h1.000v1.000h-1.000z" fill="rgb(244,105,70)" stroke="none" />
<path d="M18.000 66.000h1.000v2.000h-1.000v1.000h-1.000v2.000h-1.000v-1.000h-2.000v-1.000h2.000v-1.000h1.000v-1.000h1.000z" fill="rgb(223,121,67)" stroke="none" />
<path d="M9.000 67.000h1.000v5.000h-1.000z" fill="rgb(0,0,0)" stroke="none" />
<path d="M15.000 67.000h2.000v1.000h-2.000z" fill="rgb(244,105,70)" stroke="none" />
<path d="M10.000 68.000h1.000v1.000h-1.000z" fill="rgb(223,121,67)" stroke="none" />
<path d="M21.000 68.000h1.000v1.000h-1.000z" fill="rgb(0,0,0)" stroke="none" />
<path d="M23.000 68.000h1.000v3.000h-1.000z" fill="rgb(244,105,70)" stroke="none" />
<path d="M10.000 69.000h1.000v3.000h-1.000z" fill="rgb(244,105,70)" stroke="none" />
<path d="M20.000 69.000h2.000v2.000h-2.000v1.000h-1.000v-2.000h1.000z" fill="rgb(223,121,67)" stroke="none" />
<path d="M11.000 71.000h1.000v1.000h-1.000z" fill="rgb(223,121,67)" stroke="none" />
<path d="M10.000 72.000h1.000v3.000h-1.000z" fill="rgb(0,0,0)" stroke="none" />
<path d="M11.000 72.000h1.000v3.000h-1.000z" fill="rgb(244,105,70)" stroke="none" />
<path d="M22.000 72.000h1.000v1.000h-1.000z" fill="rgb(0,0,0)" stroke="none" />
<path d="M23.000 72.000h1.000v2.000h-1.000z" fill="rgb(244,105,70)" stroke="none" />
<path d="M12.000 74.000h1.000v1.000h-1.000z" fill="rgb(223,121,67)" stroke="none" />
</svg>
