<?xml version="1.0" encoding="UTF-8" standalone="no"?>
<!-- Created with Inkscape (http://www.inkscape.org/) -->

<svg
   xmlns:dc="http://purl.org/dc/elements/1.1/"
   xmlns:cc="http://creativecommons.org/ns#"
   xmlns:rdf="http://www.w3.org/1999/02/22-rdf-syntax-ns#"
   xmlns:svg="http://www.w3.org/2000/svg"
   xmlns="http://www.w3.org/2000/svg"
   xmlns:sodipodi="http://sodipodi.sourceforge.net/DTD/sodipodi-0.dtd"
   xmlns:inkscape="http://www.inkscape.org/namespaces/inkscape"
   width="600"
   height="130"
   id="svg2997"
   version="1.1"
   inkscape:version="0.48.4 r9939"
   sodipodi:docname="header-monotone.svg">
  <defs
     id="defs2999" />
  <sodipodi:namedview
     id="base"
     pagecolor="#ffffff"
     bordercolor="#666666"
     borderopacity="1.0"
     inkscape:pageopacity="0.0"
     inkscape:pageshadow="2"
     inkscape:zoom="1.138"
     inkscape:cx="146.07546"
     inkscape:cy="40.473836"
     inkscape:current-layer="layer1"
     showgrid="true"
     inkscape:grid-bbox="true"
     inkscape:document-units="px"
     inkscape:window-width="1680"
     inkscape:window-height="1023"
     inkscape:window-x="0"
     inkscape:window-y="-6"
     inkscape:window-maximized="1"
     showborder="true">
    <inkscape:grid
       type="xygrid"
       id="grid3005"
       empspacing="5"
       visible="true"
       enabled="true"
       snapvisiblegridlinesonly="true" />
    <sodipodi:guide
       position="0,0"
       orientation="0,16"
       id="guide3268" />
    <sodipodi:guide
       position="0,-5"
       orientation="-16,0"
       id="guide3270" />
    <sodipodi:guide
       position="0,-15"
       orientation="0,-16"
       id="guide3272" />
    <sodipodi:guide
       position="0,16"
       orientation="16,0"
       id="guide3274" />
  </sodipodi:namedview>
  <metadata
     id="metadata3002">
    <rdf:RDF>
      <cc:Work
         rdf:about="">
        <dc:format>image/svg+xml</dc:format>
        <dc:type
           rdf:resource="http://purl.org/dc/dcmitype/StillImage" />
        <dc:title></dc:title>
      </cc:Work>
    </rdf:RDF>
  </metadata>
  <g
     id="layer1"
     inkscape:label="Layer 1"
     inkscape:groupmode="layer"
     transform="translate(0,114)">
    <g
       id="g3100"
       style="fill:#5398C6;fill-opacity:1"
       transform="matrix(-1,0,0,-1,600,-98)">
      <path
         style="fill:#5398C6;fill-opacity:1"
         d="m 190.00002,-44 10,0 0,10 -10,0 z"
         id="rect3338"
         inkscape:connector-curvature="0" />
      <path
         style="fill:#5398C6;fill-opacity:1"
         d="m 210.00002,-64 10,0 0,10 -10,0 z"
         id="rect3340"
         inkscape:connector-curvature="0" />
      <path
         style="fill:#5398C6;fill-opacity:1"
         d="m 210.00002,-34 10,0 0,10 -10,0 z"
         id="rect3342"
         inkscape:connector-curvature="0" />
      <path
         style="fill:#5398C6;fill-opacity:1"
         d="m 190.00002,-24 10,0 0,10 -10,0 z"
         id="rect3344"
         inkscape:connector-curvature="0" />
      <path
         style="fill:#5398C6;fill-opacity:1"
         d="m 200.00002,-14 10,0 0,10 -10,0 z"
         id="rect3346"
         inkscape:connector-curvature="0" />
      <path
         style="fill:#5398C6;fill-opacity:1"
         d="m 190.00002,-14 10,0 0,10 -10,0 z"
         id="rect3348"
         inkscape:connector-curvature="0" />
      <path
         style="fill:#5398C6;fill-opacity:1"
         d="m 220.00002,-14 10,0 0,10 -10,0 z"
         id="rect3350"
         inkscape:connector-curvature="0" />
      <path
         style="fill:#5398C6;fill-opacity:1"
         d="m 220.00002,6 10,0 0,10 -10,0 z"
         id="rect3352"
         inkscape:connector-curvature="0" />
      <path
         style="fill:#5398C6;fill-opacity:1"
         d="m 200.00002,6 10,0 0,10 -10,0 z"
         id="rect3354"
         inkscape:connector-curvature="0" />
      <path
         style="fill:#5398C6;fill-opacity:1"
         d="m 190.00002,6 10,0 0,10 -10,0 z"
         id="rect3356"
         inkscape:connector-curvature="0" />
      <path
         style="fill:#5398C6;fill-opacity:1"
         d="m 230.00002,-4 10,0 0,10 -10,0 z"
         id="rect3358"
         inkscape:connector-curvature="0" />
      <path
         style="fill:#5398C6;fill-opacity:1"
         d="m 210.00002,-4 10,0 0,10 -10,0 z"
         id="rect3360"
         inkscape:connector-curvature="0" />
      <path
         style="fill:#5398C6;fill-opacity:1"
         d="m 230.00002,-24 10,0 0,10 -10,0 z"
         id="rect3362"
         inkscape:connector-curvature="0" />
      <path
         style="fill:#5398C6;fill-opacity:1"
         d="m 230.00002,-14 10,0 0,10 -10,0 z"
         id="rect3364"
         inkscape:connector-curvature="0" />
      <path
         style="fill:#5398C6;fill-opacity:1"
         d="m 240.00002,-4 10,0 0,10 -10,0 z"
         id="rect3366"
         inkscape:connector-curvature="0" />
      <path
         style="fill:#5398C6;fill-opacity:1"
         d="m 240.00002,6 10,0 0,10 -10,0 z"
         id="rect3368"
         inkscape:connector-curvature="0" />
      <path
         style="fill:#5398C6;fill-opacity:1"
         d="m 250.00002,6 10,0 0,10 -10,0 z"
         id="rect3370"
         inkscape:connector-curvature="0" />
      <path
         style="fill:#5398C6;fill-opacity:1"
         d="m 259.99997,-4 10,0 0,10 -10,0 z"
         id="rect3372"
         inkscape:connector-curvature="0" />
      <path
         style="fill:#5398C6;fill-opacity:1"
         d="m 269.99997,6 10,0 0,10 -10,0 z"
         id="rect3374"
         inkscape:connector-curvature="0" />
      <path
         style="fill:#5398C6;fill-opacity:1"
         d="m 279.99997,-4 10,0 0,10 -10,0 z"
         id="rect3376"
         inkscape:connector-curvature="0" />
      <path
         style="fill:#5398C6;fill-opacity:1"
         d="m 289.99997,-4 10,0 0,10 -10,0 z"
         id="rect3378"
         inkscape:connector-curvature="0" />
      <path
         style="fill:#5398C6;fill-opacity:1"
         d="m 289.99997,-14 10,0 0,10 -10,0 z"
         id="rect3380"
         inkscape:connector-curvature="0" />
      <path
         style="fill:#5398C6;fill-opacity:1"
         d="m 40,-14 10,0 0,10 -10,0 z"
         id="rect3386"
         inkscape:connector-curvature="0" />
      <path
         style="fill:#5398C6;fill-opacity:1"
         d="m 9.999999,-34 10,0 0,10 -10,0 z"
         id="rect3390"
         inkscape:connector-curvature="0" />
      <path
         style="fill:#5398C6;fill-opacity:1"
         d="m 9.999999,-24 10,0 0,10 -10,0 z"
         id="rect3392"
         inkscape:connector-curvature="0" />
      <path
         style="fill:#5398C6;fill-opacity:1"
         d="m 20,-14 10,0 0,10 -10,0 z"
         id="rect3394"
         inkscape:connector-curvature="0" />
      <path
         style="fill:#5398C6;fill-opacity:1"
         d="M 30,-4 40,-4 40,6 30,6 z"
         id="rect3396"
         inkscape:connector-curvature="0" />
      <path
         style="fill:#5398C6;fill-opacity:1"
         d="m 30,-24 10,0 0,10 -10,0 z"
         id="rect3398"
         inkscape:connector-curvature="0" />
      <path
         style="fill:#5398C6;fill-opacity:1"
         d="m 40,-34 10,0 0,10 -10,0 z"
         id="rect3400"
         inkscape:connector-curvature="0" />
      <path
         style="fill:#5398C6;fill-opacity:1"
         d="m 30,-44 10,0 0,10 -10,0 z"
         id="rect3402"
         inkscape:connector-curvature="0" />
      <path
         style="fill:#5398C6;fill-opacity:1"
         d="m 30,-34 10,0 0,10 -10,0 z"
         id="rect3404"
         inkscape:connector-curvature="0" />
      <path
         style="fill:#5398C6;fill-opacity:1"
         d="m 9.999999,-4 10,0 0,10 -10,0 z"
         id="rect3406"
         inkscape:connector-curvature="0" />
      <path
         style="fill:#5398C6;fill-opacity:1"
         d="M 0,-4 10,-4 10,6 0,6 z"
         id="rect3408"
         inkscape:connector-curvature="0" />
      <path
         style="fill:#5398C6;fill-opacity:1"
         d="m 0,-14 10,0 0,10 -10,0 z"
         id="rect3410"
         inkscape:connector-curvature="0" />
      <path
         style="fill:#5398C6;fill-opacity:1"
         d="m 9.999999,6 10,0 0,10 -10,0 z"
         id="rect3412"
         inkscape:connector-curvature="0" />
      <path
         style="fill:#5398C6;fill-opacity:1"
         d="m 20,6 10,0 0,10 -10,0 z"
         id="rect3414"
         inkscape:connector-curvature="0" />
      <path
         style="fill:#5398C6;fill-opacity:1"
         d="M 40,-4 50,-4 50,6 40,6 z"
         id="rect3416"
         inkscape:connector-curvature="0" />
      <path
         style="fill:#5398C6;fill-opacity:1"
         d="M 50,-4 60,-4 60,6 50,6 z"
         id="rect3418"
         inkscape:connector-curvature="0" />
      <path
         style="fill:#5398C6;fill-opacity:1"
         d="m 60,6 10,0 0,10 -10,0 z"
         id="rect3420"
         inkscape:connector-curvature="0" />
      <path
         style="fill:#5398C6;fill-opacity:1"
         d="M 60,-4 70,-4 70,6 60,6 z"
         id="rect3422"
         inkscape:connector-curvature="0" />
      <path
         style="fill:#5398C6;fill-opacity:1"
         d="m 60,-14 10,0 0,10 -10,0 z"
         id="rect3424"
         inkscape:connector-curvature="0" />
      <path
         style="fill:#5398C6;fill-opacity:1"
         d="m 50,-24 10,0 0,10 -10,0 z"
         id="rect3426"
         inkscape:connector-curvature="0" />
      <path
         style="fill:#5398C6;fill-opacity:1"
         d="m 50,-34 10,0 0,10 -10,0 z"
         id="rect3428"
         inkscape:connector-curvature="0" />
      <path
         style="fill:#5398C6;fill-opacity:1"
         d="m 70,-54 10,0 0,10 -10,0 z"
         id="rect3430"
         inkscape:connector-curvature="0" />
      <path
         style="fill:#5398C6;fill-opacity:1"
         d="m 80,-24 10,0 0,10 -10,0 z"
         id="rect3432"
         inkscape:connector-curvature="0" />
      <path
         style="fill:#5398C6;fill-opacity:1"
         d="M 70,-4 80,-4 80,6 70,6 z"
         id="rect3434"
         inkscape:connector-curvature="0" />
      <path
         style="fill:#5398C6;fill-opacity:1"
         d="m 90,-4 10,0 0,10 -10,0 z"
         id="rect3436"
         inkscape:connector-curvature="0" />
      <path
         style="fill:#5398C6;fill-opacity:1"
         d="m 110,6 10,0 0,10 -10,0 z"
         id="rect3438"
         inkscape:connector-curvature="0" />
      <path
         style="fill:#5398C6;fill-opacity:1"
         d="m 100,-14 10,0 0,10 -10,0 z"
         id="rect3440"
         inkscape:connector-curvature="0" />
      <path
         style="fill:#5398C6;fill-opacity:1"
         d="m 90,-24 10,0 0,10 -10,0 z"
         id="rect3442"
         inkscape:connector-curvature="0" />
      <path
         style="fill:#5398C6;fill-opacity:1"
         d="m 120,-34 10,0 0,10 -10,0 z"
         id="rect3444"
         inkscape:connector-curvature="0" />
      <path
         style="fill:#5398C6;fill-opacity:1"
         d="m 120,-14 10,0 0,10 -10,0 z"
         id="rect3446"
         inkscape:connector-curvature="0" />
      <path
         style="fill:#5398C6;fill-opacity:1"
         d="m 140.00002,-4 10,0 0,10 -10,0 z"
         id="rect3448"
         inkscape:connector-curvature="0" />
      <path
         style="fill:#5398C6;fill-opacity:1"
         d="m 150.00002,-14 10,0 0,10 -10,0 z"
         id="rect3450"
         inkscape:connector-curvature="0" />
      <path
         style="fill:#5398C6;fill-opacity:1"
         d="m 140.00002,-14 10,0 0,10 -10,0 z"
         id="rect3452"
         inkscape:connector-curvature="0" />
      <path
         style="fill:#5398C6;fill-opacity:1"
         d="m 150.00002,6 10,0 0,10 -10,0 z"
         id="rect3454"
         inkscape:connector-curvature="0" />
      <path
         style="fill:#5398C6;fill-opacity:1"
         d="m 170.00002,-14 10,0 0,10 -10,0 z"
         id="rect3456"
         inkscape:connector-curvature="0" />
      <path
         style="fill:#5398C6;fill-opacity:1"
         d="m 160.00002,-4 10,0 0,10 -10,0 z"
         id="rect3458"
         inkscape:connector-curvature="0" />
      <path
         style="fill:#5398C6;fill-opacity:1"
         d="m 269.99997,-34 10,0 0,10 -10,0 z"
         id="rect3460"
         inkscape:connector-curvature="0" />
      <path
         style="fill:#5398C6;fill-opacity:1"
         d="m 309.99997,-14 10,0 0,10 -10,0 z"
         id="rect3462"
         inkscape:connector-curvature="0" />
      <path
         style="fill:#5398C6;fill-opacity:1"
         d="m 299.99997,6 10,0 0,10 -10,0 z"
         id="rect3464"
         inkscape:connector-curvature="0" />
      <path
         style="fill:#5398C6;fill-opacity:1"
         d="m 309.99997,-34 10,0 0,10 -10,0 z"
         id="rect3466"
         inkscape:connector-curvature="0" />
      <path
         style="fill:#5398C6;fill-opacity:1"
         d="m 309.99997,-24 10,0 0,10 -10,0 z"
         id="rect3468"
         inkscape:connector-curvature="0" />
      <path
         style="fill:#5398C6;fill-opacity:1"
         d="m 319.99997,-54 10,0 0,10 -10,0 z"
         id="rect3470"
         inkscape:connector-curvature="0" />
      <path
         style="fill:#5398C6;fill-opacity:1"
         d="m 319.99997,-34 10,0 0,10 -10,0 z"
         id="rect3472"
         inkscape:connector-curvature="0" />
      <path
         style="fill:#5398C6;fill-opacity:1"
         d="m 329.99997,-14 10,0 0,10 -10,0 z"
         id="rect3474"
         inkscape:connector-curvature="0" />
      <path
         style="fill:#5398C6;fill-opacity:1"
         d="m 319.99997,-4 10,0 0,10 -10,0 z"
         id="rect3476"
         inkscape:connector-curvature="0" />
      <path
         style="fill:#5398C6;fill-opacity:1"
         d="m 349.99997,-4 10,0 0,10 -10,0 z"
         id="rect3478"
         inkscape:connector-curvature="0" />
      <path
         style="fill:#5398C6;fill-opacity:1"
         d="m 339.99997,-14 10,0 0,10 -10,0 z"
         id="rect3480"
         inkscape:connector-curvature="0" />
      <path
         style="fill:#5398C6;fill-opacity:1"
         d="m 339.99997,-24 10,0 0,10 -10,0 z"
         id="rect3482"
         inkscape:connector-curvature="0" />
      <path
         style="fill:#5398C6;fill-opacity:1"
         d="m 349.99997,-24 10,0 0,10 -10,0 z"
         id="rect3484"
         inkscape:connector-curvature="0" />
      <path
         style="fill:#5398C6;fill-opacity:1"
         d="m 339.99997,6 10,0 0,10 -10,0 z"
         id="rect3486"
         inkscape:connector-curvature="0" />
      <path
         style="fill:#5398C6;fill-opacity:1"
         d="m 369.99997,-44 10,0 0,10 -10,0 z"
         id="rect3488"
         inkscape:connector-curvature="0" />
      <path
         style="fill:#5398C6;fill-opacity:1"
         d="m 379.99997,-24 10,0 0,10 -10,0 z"
         id="rect3490"
         inkscape:connector-curvature="0" />
      <path
         style="fill:#5398C6;fill-opacity:1"
         d="m 369.99997,-14 10,0 0,10 -10,0 z"
         id="rect3492"
         inkscape:connector-curvature="0" />
      <path
         style="fill:#5398C6;fill-opacity:1"
         d="m 379.99997,-4 10,0 0,10 -10,0 z"
         id="rect3494"
         inkscape:connector-curvature="0" />
      <path
         style="fill:#5398C6;fill-opacity:1"
         d="m 369.99997,6 10,0 0,10 -10,0 z"
         id="rect3496"
         inkscape:connector-curvature="0" />
      <path
         style="fill:#5398C6;fill-opacity:1"
         d="m 359.99997,6 10,0 0,10 -10,0 z"
         id="rect3498"
         inkscape:connector-curvature="0" />
      <path
         style="fill:#5398C6;fill-opacity:1"
         d="m 359.99997,-14 10,0 0,10 -10,0 z"
         id="rect3500"
         inkscape:connector-curvature="0" />
      <path
         style="fill:#5398C6;fill-opacity:1"
         d="m 389.99997,-24 10,0 0,10 -10,0 z"
         id="rect3502"
         inkscape:connector-curvature="0" />
      <path
         style="fill:#5398C6;fill-opacity:1"
         d="m 399.99997,-14 10,0 0,10 -10,0 z"
         id="rect3504"
         inkscape:connector-curvature="0" />
      <path
         style="fill:#5398C6;fill-opacity:1"
         d="m 399.99997,-4 10,0 0,10 -10,0 z"
         id="rect3506"
         inkscape:connector-curvature="0" />
      <path
         style="fill:#5398C6;fill-opacity:1"
         d="m 409.99997,6 10,0 0,10 -10,0 z"
         id="rect3508"
         inkscape:connector-curvature="0" />
      <path
         style="fill:#5398C6;fill-opacity:1"
         d="m 389.99997,6 10,0 0,10 -10,0 z"
         id="rect3510"
         inkscape:connector-curvature="0" />
      <path
         style="fill:#5398C6;fill-opacity:1"
         d="m 409.99997,-34 10,0 0,10 -10,0 z"
         id="rect3512"
         inkscape:connector-curvature="0" />
      <path
         style="fill:#5398C6;fill-opacity:1"
         d="m 409.99997,-24 10,0 0,10 -10,0 z"
         id="rect3514"
         inkscape:connector-curvature="0" />
      <path
         style="fill:#5398C6;fill-opacity:1"
         d="m 419.99997,-4 10,0 0,10 -10,0 z"
         id="rect3516"
         inkscape:connector-curvature="0" />
      <path
         style="fill:#5398C6;fill-opacity:1"
         d="m 419.99997,6 10,0 0,10 -10,0 z"
         id="rect3518"
         inkscape:connector-curvature="0" />
      <path
         style="fill:#5398C6;fill-opacity:1"
         d="m 429.99997,-4 10,0 0,10 -10,0 z"
         id="rect3520"
         inkscape:connector-curvature="0" />
      <path
         style="fill:#5398C6;fill-opacity:1"
         d="m 429.99997,-14 10,0 0,10 -10,0 z"
         id="rect3522"
         inkscape:connector-curvature="0" />
      <path
         style="fill:#5398C6;fill-opacity:1"
         d="m 419.99997,-14 10,0 0,10 -10,0 z"
         id="rect3524"
         inkscape:connector-curvature="0" />
      <path
         style="fill:#5398C6;fill-opacity:1"
         d="m 439.99997,6 10,0 0,10 -10,0 z"
         id="rect3526"
         inkscape:connector-curvature="0" />
      <path
         style="fill:#5398C6;fill-opacity:1"
         d="m 469.99997,6 10,0 0,10 -10,0 z"
         id="rect3528"
         inkscape:connector-curvature="0" />
      <path
         style="fill:#5398C6;fill-opacity:1"
         d="m 489.99997,-4 10,0 0,10 -10,0 z"
         id="rect3530"
         inkscape:connector-curvature="0" />
      <path
         style="fill:#5398C6;fill-opacity:1"
         d="m 489.99997,-24 10,0 0,10 -10,0 z"
         id="rect3532"
         inkscape:connector-curvature="0" />
      <path
         style="fill:#5398C6;fill-opacity:1"
         d="m 479.99997,-14 10,0 0,10 -10,0 z"
         id="rect3534"
         inkscape:connector-curvature="0" />
      <path
         style="fill:#5398C6;fill-opacity:1"
         d="m 540,-4 10,0 0,10 -10,0 z"
         id="rect3536"
         inkscape:connector-curvature="0" />
      <path
         style="fill:#5398C6;fill-opacity:1"
         d="m 560,6 10,0 0,10 -10,0 z"
         id="rect3538"
         inkscape:connector-curvature="0" />
      <path
         style="fill:#5398C6;fill-opacity:1"
         d="m 570,-24 10,0 0,10 -10,0 z"
         id="rect3540"
         inkscape:connector-curvature="0" />
      <path
         style="fill:#5398C6;fill-opacity:1"
         d="m 580,-4 10,0 0,10 -10,0 z"
         id="rect3542"
         inkscape:connector-curvature="0" />
      <path
         style="fill:#5398C6;fill-opacity:1"
         d="m 570,-4 10,0 0,10 -10,0 z"
         id="rect3544"
         inkscape:connector-curvature="0" />
      <path
         style="fill:#5398C6;fill-opacity:1"
         d="m 550,-24 10,0 0,10 -10,0 z"
         id="rect3546"
         inkscape:connector-curvature="0" />
      <path
         style="fill:#5398C6;fill-opacity:1"
         d="m 550,-14 10,0 0,10 -10,0 z"
         id="rect3548"
         inkscape:connector-curvature="0" />
      <path
         style="fill:#5398C6;fill-opacity:1"
         d="m 530,6 10,0 0,10 -10,0 z"
         id="rect3550"
         inkscape:connector-curvature="0" />
      <path
         style="fill:#5398C6;fill-opacity:1"
         d="m 520,-4 10,0 0,10 -10,0 z"
         id="rect3552"
         inkscape:connector-curvature="0" />
      <path
         style="fill:#5398C6;fill-opacity:1"
         d="m 509.99997,6 10,0 0,10 -10,0 z"
         id="rect3554"
         inkscape:connector-curvature="0" />
      <path
         style="fill:#5398C6;fill-opacity:1"
         d="m 499.99997,6 10,0 0,10 -10,0 z"
         id="rect3556"
         inkscape:connector-curvature="0" />
      <path
         style="fill:#5398C6;fill-opacity:1"
         d="m 459.99997,-14 10,0 0,10 -10,0 z"
         id="rect3558"
         inkscape:connector-curvature="0" />
      <path
         style="fill:#5398C6;fill-opacity:1"
         d="m 439.99997,-24 10,0 0,10 -10,0 z"
         id="rect3560"
         inkscape:connector-curvature="0" />
      <path
         style="fill:#5398C6;fill-opacity:1"
         d="m 449.99997,-4 10,0 0,10 -10,0 z"
         id="rect3562"
         inkscape:connector-curvature="0" />
      <path
         style="fill:#5398C6;fill-opacity:1"
         d="m 590,-14 10,0 0,10 -10,0 z"
         id="rect3564"
         inkscape:connector-curvature="0" />
      <path
         style="fill:#5398C6;fill-opacity:1"
         d="m 130.00002,-34 10,0 0,10 -10,0 z"
         id="rect3566"
         inkscape:connector-curvature="0" />
      <path
         style="fill:#5398C6;fill-opacity:1"
         d="m 180.00002,6 10,0 0,10 -10,0 z"
         id="rect3568"
         inkscape:connector-curvature="0" />
    </g>
  </g>
</svg>
