<?xml version="1.0" encoding="UTF-8" standalone="no"?>

<svg
   xmlns:dc="http://purl.org/dc/elements/1.1/"
   xmlns:cc="http://creativecommons.org/ns#"
   xmlns:rdf="http://www.w3.org/1999/02/22-rdf-syntax-ns#"
   xmlns:svg="http://www.w3.org/2000/svg"
   xmlns="http://www.w3.org/2000/svg"
   width="32px"
   height="32px">
  <g>
    <rect
       style="fill:#ffffff"
       width="1"
       height="11"
       x="12"
       y="10" />
    <rect
       style="fill:#ffffff"
       width="1"
       height="9"
       x="11"
       y="11" />
    <rect
       style="fill:#ffffff"
       width="1"
       height="7"
       x="10"
       y="12" />
    <rect
       style="fill:#ffffff"
       width="1"
       height="13"
       x="13"
       y="9" />
    <rect
       style="fill:#ffffff"
       width="1"
       height="1"
       x="14"
       y="8" />
    <rect
       style="fill:#ffffff"
       width="1"
       height="1"
       x="15"
       y="7" />
    <rect
       style="fill:#ffffff"
       width="1"
       height="1"
       x="16"
       y="7" />
    <rect
       style="fill:#ffffff"
       width="1"
       height="1"
       x="14"
       y="22" />
    <rect
       style="fill:#ffffff"
       width="2"
       height="1"
       x="15"
       y="23" />
    <rect
       style="fill:#ffffff"
       width="1"
       height="1"
       x="15"
       y="22" />
    <rect
       style="fill:#ffffff"
       width="1"
       height="1"
       x="14"
       y="21" />
    <rect
       style="fill:#ffffff"
       width="1"
       height="1"
       x="15"
       y="8" />
    <rect
       style="fill:#ffffff"
       width="1"
       height="1"
       x="14"
       y="9" />
    <rect
       style="fill:#ffffff"
       width="1"
       height="11"
       x="14"
       y="10" />
    <rect
       style="fill:#ffffff"
       width="1"
       height="1"
       x="15"
       y="9" />
    <rect
       style="fill:#ffffff"
       width="1"
       height="1"
       x="15"
       y="21" />
    <rect
       style="fill:#ffffff"
       width="1"
       height="1"
       x="12"
       y="21" />
    <rect
       style="fill:#ffffff"
       width="1"
       height="1"
       x="12"
       y="9" />
    <rect
       style="fill:#ffffff"
       width="1"
       height="1"
       x="17"
       y="7" />
    <rect
       style="fill:#ffffff"
       width="1"
       height="1"
       x="17"
       y="23" />
    <rect
       style="fill:#ffffff"
       width="1"
       height="1"
       x="18"
       y="22" />
    <rect
       style="fill:#ffffff"
       width="1"
       height="1"
       x="18"
       y="8" />
    <rect
       style="fill:#ffffff"
       width="1"
       height="1"
       x="16"
       y="8" />
    <rect
       style="fill:#ffffff"
       width="1"
       height="1"
       x="16"
       y="22" />
  </g>
</svg>
