<?xml version="1.0" encoding="UTF-8" standalone="no"?>
<svg
   xmlns:dc="http://purl.org/dc/elements/1.1/"
   xmlns:cc="http://creativecommons.org/ns#"
   xmlns:rdf="http://www.w3.org/1999/02/22-rdf-syntax-ns#"
   xmlns:svg="http://www.w3.org/2000/svg"
   xmlns="http://www.w3.org/2000/svg"
   width="32px"
   height="32px">
  <g>
    <g
       id="g3170"
       transform="translate(0,-1)">
      <rect
         y="26"
         x="10"
         height="1"
         width="1"
         style="fill:#ffcc00" />
      <rect
         y="27"
         x="9"
         height="1"
         width="1"
         style="fill:#ffcc00" />
      <rect
         y="28"
         x="9"
         height="1"
         width="1"
         style="fill:#ffcc00" />
      <rect
         y="30"
         x="8"
         height="1"
         width="1"
         style="fill:#ffcc00" />
    </g>
    <g
       id="g3015"
       style="fill:#ffcc00">
      <rect
         y="8"
         x="9"
         height="14"
         width="14"
         style="fill:#ffcc00" />
      <rect
         y="6"
         x="12"
         height="18"
         width="8"
         style="fill:#ffcc00" />
      <rect
         y="12"
         x="7"
         height="6"
         width="18"
         style="fill:#ffcc00" />
      <rect
         y="10"
         x="8"
         height="2"
         width="16"
         style="fill:#ffcc00" />
      <rect
         y="5"
         x="15"
         height="20"
         width="2"
         style="fill:#ffcc00" />
      <rect
         y="18"
         x="7"
         height="1"
         width="18"
         style="fill:#ffcc00" />
      <rect
         y="19"
         x="8"
         height="1"
         width="16"
         style="fill:#ffcc00" />
      <rect
         y="14"
         x="6"
         height="3"
         width="20"
         style="fill:#ffcc00" />
    </g>
    <g
       id="g3163"
       transform="translate(0,-2)">
      <rect
         y="29"
         x="3"
         height="1"
         width="1"
         style="fill:#ffcc00" />
      <rect
         y="28"
         x="4"
         height="1"
         width="1"
         style="fill:#ffcc00" />
      <rect
         y="27"
         x="5"
         height="1"
         width="1"
         style="fill:#ffcc00" />
      <rect
         y="26"
         x="6"
         height="1"
         width="1"
         style="fill:#ffcc00" />
      <rect
         y="25"
         x="7"
         height="1"
         width="1"
         style="fill:#ffcc00" />
    </g>
    <rect
       style="fill:#ffcc00"
       width="1"
       height="1"
       x="8"
       y="28" />
    <rect
       style="fill:#ffcc00"
       width="1"
       height="1"
       x="13"
       y="26" />
    <rect
       style="fill:#ffcc00"
       width="1"
       height="1"
       x="13"
       y="27" />
    <rect
       style="fill:#ffcc00"
       width="1"
       height="1"
       x="13"
       y="28" />
    <rect
       style="fill:#ffcc00"
       width="1"
       height="1"
       x="12"
       y="29" />
    <rect
       style="fill:#ffcc00"
       width="1"
       height="1"
       x="12"
       y="30" />
    <rect
       style="fill:#ffcc00"
       width="1"
       height="6"
       x="16"
       y="26" />
    <rect
       style="fill:#ffcc00"
       width="1"
       height="3"
       x="19"
       y="26" />
    <rect
       style="fill:#ffcc00"
       width="1"
       height="2"
       x="20"
       y="29" />
    <rect
       style="fill:#ffcc00"
       width="1"
       height="1"
       x="22"
       y="25" />
    <rect
       style="fill:#ffcc00"
       width="1"
       height="2"
       x="23"
       y="26" />
    <rect
       style="fill:#ffcc00"
       width="1"
       height="2"
       x="24"
       y="28" />
    <rect
       style="fill:#ffcc00"
       width="1"
       height="1"
       x="24"
       y="23" />
    <rect
       style="fill:#ffcc00"
       width="1"
       height="1"
       x="25"
       y="24" />
    <rect
       style="fill:#ffcc00"
       width="1"
       height="1"
       x="26"
       y="25" />
    <rect
       style="fill:#ffcc00"
       width="1"
       height="1"
       x="27"
       y="26" />
    <rect
       style="fill:#ffcc00"
       width="1"
       height="1"
       x="28"
       y="27" />
    <rect
       style="fill:#ffcc00"
       width="1"
       height="1"
       x="26"
       y="20" />
    <rect
       style="fill:#ffcc00"
       width="2"
       height="1"
       x="27"
       y="21" />
    <rect
       style="fill:#ffcc00"
       width="2"
       height="1"
       x="29"
       y="22" />
    <rect
       style="fill:#ffcc00"
       width="3"
       height="1"
       x="27"
       y="18" />
    <rect
       style="fill:#ffcc00"
       width="2"
       height="1"
       x="30"
       y="19" />
    <rect
       style="fill:#ffcc00"
       width="5"
       height="1"
       x="27"
       y="15" />
    <rect
       style="fill:#ffcc00"
       width="3"
       height="1"
       x="27"
       y="12" />
    <rect
       style="fill:#ffcc00"
       width="2"
       height="1"
       x="30"
       y="11" />
    <rect
       style="fill:#ffcc00"
       width="1"
       height="1"
       x="26"
       y="9" />
    <rect
       style="fill:#ffcc00"
       width="2"
       height="1"
       x="27"
       y="8" />
    <rect
       style="fill:#ffcc00"
       width="2"
       height="1"
       x="29"
       y="7" />
    <rect
       style="fill:#ffcc00"
       width="1"
       height="1"
       x="24"
       y="6" />
    <rect
       style="fill:#ffcc00"
       width="1"
       height="1"
       x="25"
       y="5" />
    <rect
       style="fill:#ffcc00"
       width="1"
       height="1"
       x="26"
       y="4" />
    <rect
       style="fill:#ffcc00"
       width="1"
       height="1"
       x="27"
       y="3" />
    <rect
       style="fill:#ffcc00"
       width="1"
       height="1"
       x="28"
       y="2" />
    <rect
       style="fill:#ffcc00"
       width="1"
       height="1"
       x="21"
       y="5"
       ry="0" />
    <rect
       style="fill:#ffcc00"
       width="1"
       height="2"
       x="22"
       y="3" />
    <rect
       style="fill:#ffcc00"
       width="1"
       height="2"
       x="23"
       y="1" />
    <rect
       style="fill:#ffcc00"
       width="1"
       height="3"
       x="19"
       y="2" />
    <rect
       style="fill:#ffcc00"
       width="1"
       height="2"
       x="20"
       y="0" />
    <rect
       style="fill:#ffcc00"
       width="1"
       height="4"
       x="16"
       y="0" />
    <rect
       style="fill:#ffcc00"
       width="1"
       height="3"
       x="12"
       y="2" />
    <rect
       style="fill:#ffcc00"
       width="1"
       height="2"
       x="11"
       y="0" />
    <rect
       style="fill:#ffcc00"
       width="1"
       height="1"
       x="9"
       y="5" />
    <rect
       style="fill:#ffcc00"
       width="1"
       height="2"
       x="8"
       y="3" />
    <rect
       style="fill:#ffcc00"
       width="1"
       height="2"
       x="7"
       y="1" />
    <rect
       style="fill:#ffcc00"
       width="1"
       height="1"
       x="7"
       y="7" />
    <rect
       style="fill:#ffcc00"
       width="1"
       height="1"
       x="6"
       y="6" />
    <rect
       style="fill:#ffcc00"
       width="1"
       height="1"
       x="5"
       y="5" />
    <rect
       style="fill:#ffcc00"
       width="1"
       height="1"
       x="4"
       y="4" />
    <rect
       style="fill:#ffcc00"
       width="1"
       height="1"
       x="3"
       y="3" />
    <rect
       style="fill:#ffcc00"
       width="1"
       height="1"
       x="6"
       y="9" />
    <rect
       style="fill:#ffcc00"
       width="2"
       height="1"
       x="4"
       y="8" />
    <rect
       style="fill:#ffcc00"
       width="2"
       height="1"
       x="2"
       y="7" />
    <rect
       style="fill:#ffcc00"
       width="3"
       height="1"
       x="3"
       y="11" />
    <rect
       style="fill:#ffcc00"
       width="2"
       height="1"
       x="1"
       y="10" />
    <rect
       style="fill:#ffcc00"
       width="5"
       height="1"
       x="0"
       y="14" />
    <rect
       style="fill:#ffcc00"
       width="3"
       height="1"
       x="2"
       y="17" />
    <rect
       style="fill:#ffcc00"
       width="2"
       height="1"
       x="0"
       y="18" />
    <rect
       style="fill:#ffcc00"
       width="1"
       height="1"
       x="4"
       y="20" />
    <rect
       style="fill:#ffcc00"
       width="2"
       height="1"
       x="2"
       y="21" />
    <rect
       style="fill:#ffcc00"
       width="2"
       height="1"
       x="0"
       y="22" />
  </g>
</svg>
